<svg width="333" height="112" viewBox="0 0 333 112" fill="none" xmlns="http://www.w3.org/2000/svg">
<mask id="path-1-outside-1_2445_116" maskUnits="userSpaceOnUse" x="0" y="0" width="178" height="88" fill="black">
<rect fill="white" width="178" height="88"/>
<path d="M22.7232 86.245C22.4725 86.245 21.9709 86.0572 21.2186 85.6817C20.529 85.2436 20.0901 85.0245 19.902 85.0245C18.7736 84.5238 17.8959 83.6163 17.2689 82.3019C16.642 80.9876 16.1404 79.0786 15.7643 76.5751C15.3881 74.1342 15.0747 72.6321 14.8239 72.0688C13.0685 72.0688 11.4698 71.7871 10.0278 71.2238C8.5859 70.598 7.36338 69.753 6.36028 68.689C4.66756 66.9366 3.31965 64.2453 2.31656 60.6152C1.9404 59.3634 1.65828 57.83 1.4702 56.0149C1.28212 54.1999 1.18808 52.6039 1.18808 51.2269C1.12539 50.4133 1.09404 49.0051 1.09404 47.0022V42.7775C1.03135 41.4632 1 39.9298 1 38.1773C1 34.422 1.09404 30.166 1.28212 25.4094C1.4702 21.2785 1.87771 17.2729 2.50464 13.3924C3.13157 9.76233 4.10332 6.82069 5.41988 4.56752C6.73644 2.18917 8.5232 1 10.7802 1C12.9744 1 15.1374 1.90753 17.2689 3.72258C19.4632 5.47505 20.7171 7.41528 21.0305 9.54328C22.7859 19.5574 23.6637 31.7308 23.6637 46.0634C23.6637 57.0163 21.7202 65.278 17.8332 70.8483C17.8332 71.2238 17.9899 71.8184 18.3034 72.6321L18.7736 73.9464L19.0557 76.4812C19.2438 78.1711 19.4005 79.3603 19.5259 80.0488C19.714 80.7372 20.0588 81.4257 20.5603 82.1142C21.1246 82.8652 21.9082 83.2408 22.9113 83.2408H23.2875C25.2937 83.2408 26.2968 83.6476 26.2968 84.4612C26.2968 85.6504 25.1056 86.245 22.7232 86.245ZM13.7894 69.6278C16.1091 69.6278 17.7705 66.6862 18.7736 60.8029C19.8394 54.7319 20.3722 45.3437 20.3722 32.6383V30.1973L20.2782 24.2828L20.1842 21.748C20.1215 20.2458 19.9647 18.8063 19.714 17.4294C19.4632 15.9898 19.2124 14.5503 18.9616 13.1108C18.5228 10.7324 17.551 8.47928 16.0464 6.35128C14.7925 4.53623 12.9744 3.6287 10.5921 3.6287C9.58899 3.6287 8.71128 4.31717 7.95896 5.69411C6.7051 7.88469 5.67065 12.2659 4.85564 18.8376C4.2914 23.2188 3.94659 28.5388 3.8212 34.7976C3.75851 36.1745 3.72716 38.1147 3.72716 40.6183V46.2512C3.72716 49.8187 4.10332 53.4175 4.85564 57.0476C5.2945 59.5512 5.85874 61.6792 6.54836 63.4316C7.30068 65.1215 8.27243 66.561 9.4636 67.7502C10.7175 69.002 12.1594 69.6278 13.7894 69.6278Z"/>
<path d="M46.6226 74.6975C45.6195 74.6975 44.5224 74.3532 43.3312 73.6648C42.2028 73.0389 41.2624 72.2878 40.51 71.4116C39.6323 70.285 38.9427 67.1243 38.4412 61.9295C37.9396 56.7347 37.6261 50.7888 37.5008 44.0919C37.5008 42.5898 37.4694 41.4632 37.4067 40.7121C37.2813 25.0025 37.0306 15.7082 36.6544 12.8291L37.2186 11.5148C38.6606 11.7026 39.3816 13.4237 39.3816 16.6783L39.6637 41.5571C39.6637 43.3095 39.8204 46.6267 40.1339 51.5086C40.51 55.8898 40.6981 59.2069 40.6981 61.4601C40.6981 68.5951 43.0491 72.1627 47.7511 72.1627C50.635 72.1627 52.4845 65.5909 53.2995 52.4474L53.3935 50.5698C53.8324 33.358 54.0518 20.6214 54.0518 12.3597L53.9578 11.5148C53.8951 11.2644 53.8637 10.9828 53.8637 10.6699C53.8637 9.98139 54.3966 9.63716 55.4624 9.63716C56.2147 9.63716 56.6849 9.82492 56.873 10.2004C56.9984 10.8263 57.0611 11.9216 57.0611 13.4863C57.0611 18.243 56.873 21.435 56.4968 23.0623L56.5909 23.6256C56.5909 24.4392 56.4968 25.691 56.3088 27.3809L56.1207 31.1362V32.075C56.1834 32.3253 56.2147 32.6383 56.2147 33.0138C56.0893 34.5159 56.0266 35.9554 56.0266 37.3324C55.964 37.7705 55.9326 38.459 55.9326 39.3978C55.8072 45.3437 55.6818 50.5072 55.5564 54.8883C55.3684 60.3335 54.616 64.9337 53.2995 68.689C51.9202 72.6947 49.6946 74.6975 46.6226 74.6975Z"/>
<path d="M89.7128 74.1342C88.7724 74.1342 88.1768 74.009 87.9261 73.7587C87.6753 73.5709 87.4872 73.0076 87.3618 72.0688C86.7976 67.4998 86.4528 64.6521 86.3274 63.5255L85.8572 59.7702C84.4779 59.4573 82.9106 59.3008 81.1552 59.3008L77.7697 59.113C76.2651 58.9253 75.168 58.8314 74.4783 58.8314C74.1022 58.8314 73.8827 58.9879 73.82 59.3008C73.82 59.4886 73.7887 59.5825 73.726 59.5825L73.5379 61.4601C73.4752 62.5867 73.1304 64.8399 72.5035 68.2196C72.19 69.9095 71.8139 71.2238 71.375 72.1627C70.8735 73.2267 70.4033 73.7587 69.9644 73.7587C69.5882 73.7587 69.1807 73.6022 68.7419 73.2892C68.303 72.9137 68.0836 72.5382 68.0836 72.1627L68.2717 71.5994C69.4002 67.1556 70.3406 62.7431 71.0929 58.362L72.2214 52.5413L73.3498 45.4062C73.3498 45.4062 73.6947 43.3408 74.3843 39.21C74.6978 37.5202 75.262 34.7976 76.077 31.0423C76.9547 26.7863 77.4876 23.8759 77.6757 22.3112C77.7384 22.1235 77.8638 20.9656 78.0518 18.8376C78.3026 16.4593 78.522 14.7068 78.7101 13.5802C78.8982 11.9529 79.0863 11.0141 79.2744 10.7637H79.9326C80.1207 10.8263 80.3402 10.8576 80.5909 10.8576C81.3433 10.8576 81.9075 10.6699 82.2837 10.2943C82.7225 10.2943 83.0987 10.4508 83.4121 10.7637C83.7883 11.0141 83.9764 11.327 83.9764 11.7026C83.9764 14.7068 84.1958 18.1491 84.6346 22.0296C84.8854 24.0324 85.0735 25.691 85.1989 27.0054C85.8885 35.0792 87.6439 50.2255 90.4651 72.4443V72.726C90.4651 73.3518 90.2144 73.8212 89.7128 74.1342ZM85.387 57.2354C84.76 48.2227 83.5689 34.9227 81.8135 17.3355L76.7353 42.402C75.2933 49.5997 74.5724 54.1373 74.5724 56.0149C74.5724 56.3279 75.7635 56.6095 78.1459 56.8599C80.5282 57.1102 82.6285 57.2354 84.4466 57.2354H85.387Z"/>
<path d="M106.873 71.9749L106.779 68.5013C106.716 67.4998 106.685 66.3733 106.685 65.1215C106.685 64.4956 106.716 63.9636 106.779 63.5255L106.873 61.8356C106.873 61.2097 106.748 60.4587 106.497 59.5825C106.497 55.389 106.183 47.5968 105.556 36.2058C104.929 25.1903 104.585 17.711 104.522 13.768C100.635 13.768 98.0331 13.6741 96.7166 13.4863C95.4627 13.1734 94.8358 12.6727 94.8358 11.9842C95.1493 11.2957 95.7448 10.9515 96.6226 10.9515C98.5033 10.9515 101.231 11.0767 104.804 11.327C108.064 11.64 110.791 11.7964 112.986 11.7964H114.96L116.935 11.7026C118.064 11.7026 118.628 12.1094 118.628 12.923C118.628 13.2986 118.408 13.6115 117.97 13.8619C117.593 14.0496 117.123 14.1435 116.559 14.1435C115.305 14.1435 113.989 14.0809 112.609 13.9557L108.566 13.768C108.315 13.768 108.189 13.8619 108.189 14.0496C108.127 14.2374 108.095 14.832 108.095 15.8334C108.095 21.9044 108.472 31.1049 109.224 43.4347C109.914 56.2027 110.258 65.3718 110.258 70.9422C110.258 71.3803 109.976 71.7871 109.412 72.1627C108.91 72.5382 108.409 72.726 107.907 72.726L106.873 71.9749Z"/>
<path d="M142.973 74.4158C142.22 73.6022 141.405 71.4429 140.527 67.938C139.65 64.433 138.835 60.49 138.082 56.1088C137.581 52.5413 136.86 49.0051 135.92 45.5001C135.167 42.3707 134.446 40.806 133.757 40.806H133.474C132.095 40.806 131.406 41.2441 131.406 42.1204C131.406 46.6267 131.656 53.4801 132.158 62.6806C132.409 68.3135 132.691 71.5994 133.004 72.5382L132.252 74.1342H130.935L130.183 73.3831C129.18 44.4674 128.678 24.7522 128.678 14.2374C128.678 13.5489 128.71 12.9856 128.772 12.5475C128.898 12.1094 129.117 11.7026 129.431 11.327C129.682 10.8889 130.12 10.6699 130.747 10.6699C133.945 10.6699 136.515 11.4522 138.459 13.0169C140.402 14.5816 141.374 16.8348 141.374 19.7764V26.6298C141.374 27.819 140.966 29.415 140.151 31.4178C139.399 33.4206 138.553 35.267 137.612 36.9569L136.39 39.3039C137.079 42.4959 138.427 48.254 140.433 56.5782C142.502 64.8399 143.631 69.221 143.819 69.7217C143.882 69.7843 143.944 69.9408 144.007 70.1911C144.132 70.4415 144.352 70.817 144.665 71.3177C145.104 72.194 145.324 72.945 145.324 73.5709C145.324 74.4471 144.979 74.8852 144.289 74.8852L142.973 74.4158ZM131.876 38.459C133.067 38.459 134.133 37.8644 135.073 36.6752C136.014 35.486 136.766 33.9526 137.33 32.075C138.333 28.2571 138.835 25.2216 138.835 22.9684C138.835 21.5289 138.741 20.3397 138.553 19.4009C138.427 18.4621 138.176 17.4607 137.8 16.3967C137.048 14.2061 135.261 13.1108 132.44 13.1108C132.127 13.1108 131.876 13.3924 131.688 13.9557C131.5 14.4564 131.406 14.9884 131.406 15.5517C131.406 19.7451 131.468 23.5317 131.594 26.9115C131.656 30.2912 131.688 34.0778 131.688 38.2712L131.876 38.459Z"/>
<path d="M165.64 75.073C158.305 75.073 154.637 63.5568 154.637 40.5244V37.2385C154.637 19.7764 156.894 11.0454 161.408 11.0454C161.722 11.0454 162.16 11.1393 162.725 11.327C164.731 12.0155 166.706 12.4536 168.649 12.6414C169.84 12.8917 171.031 14.1122 172.223 16.3028C173.539 18.556 174.511 21.5289 175.138 25.2216C175.828 28.9143 176.172 32.7009 176.172 36.5813L175.984 37.0507C175.984 39.1161 176.016 40.9625 176.078 42.5898L176.172 48.2227C176.172 51.4147 176.047 54.2938 175.796 56.8599C175.42 60.7403 174.793 64.0888 173.915 66.9053C173.351 68.5951 172.693 70.0034 171.941 71.13C171.251 72.2565 170.373 73.1954 169.307 73.9464C168.304 74.6975 167.082 75.073 165.64 75.073ZM165.264 72.3504C167.709 72.3504 169.527 70.6292 170.718 67.1869C171.909 63.682 172.63 60.1145 172.881 56.4843C173.132 52.7291 173.257 49.7248 173.257 47.4717C173.257 44.9681 173.069 41.2754 172.693 36.3936C172.379 30.9484 172.223 27.2557 172.223 25.3155L171.846 24.5644L172.035 24.095C172.035 21.3411 171.251 18.9628 169.684 16.96C168.179 14.9571 166.329 13.9557 164.135 13.9557C161.251 13.9557 159.527 15.3327 158.963 18.0866C158.838 19.0254 158.712 20.371 158.587 22.1235C158.587 26.755 158.399 29.9157 158.023 31.6056C158.023 32.5444 157.929 34.0152 157.74 36.018L157.552 40.4305C157.552 41.8074 157.584 43.0279 157.646 44.0919L157.74 47.8472C157.74 50.7888 157.991 54.1686 158.493 57.9865C158.869 60.8029 159.308 63.1813 159.809 65.1215C160.311 67.0617 161.032 68.7203 161.972 70.0973C162.913 71.5994 164.01 72.3504 165.264 72.3504Z"/>
</mask>
<path d="M22.7232 86.245C22.4725 86.245 21.9709 86.0572 21.2186 85.6817C20.529 85.2436 20.0901 85.0245 19.902 85.0245C18.7736 84.5238 17.8959 83.6163 17.2689 82.3019C16.642 80.9876 16.1404 79.0786 15.7643 76.5751C15.3881 74.1342 15.0747 72.6321 14.8239 72.0688C13.0685 72.0688 11.4698 71.7871 10.0278 71.2238C8.5859 70.598 7.36338 69.753 6.36028 68.689C4.66756 66.9366 3.31965 64.2453 2.31656 60.6152C1.9404 59.3634 1.65828 57.83 1.4702 56.0149C1.28212 54.1999 1.18808 52.6039 1.18808 51.2269C1.12539 50.4133 1.09404 49.0051 1.09404 47.0022V42.7775C1.03135 41.4632 1 39.9298 1 38.1773C1 34.422 1.09404 30.166 1.28212 25.4094C1.4702 21.2785 1.87771 17.2729 2.50464 13.3924C3.13157 9.76233 4.10332 6.82069 5.41988 4.56752C6.73644 2.18917 8.5232 1 10.7802 1C12.9744 1 15.1374 1.90753 17.2689 3.72258C19.4632 5.47505 20.7171 7.41528 21.0305 9.54328C22.7859 19.5574 23.6637 31.7308 23.6637 46.0634C23.6637 57.0163 21.7202 65.278 17.8332 70.8483C17.8332 71.2238 17.9899 71.8184 18.3034 72.6321L18.7736 73.9464L19.0557 76.4812C19.2438 78.1711 19.4005 79.3603 19.5259 80.0488C19.714 80.7372 20.0588 81.4257 20.5603 82.1142C21.1246 82.8652 21.9082 83.2408 22.9113 83.2408H23.2875C25.2937 83.2408 26.2968 83.6476 26.2968 84.4612C26.2968 85.6504 25.1056 86.245 22.7232 86.245ZM13.7894 69.6278C16.1091 69.6278 17.7705 66.6862 18.7736 60.8029C19.8394 54.7319 20.3722 45.3437 20.3722 32.6383V30.1973L20.2782 24.2828L20.1842 21.748C20.1215 20.2458 19.9647 18.8063 19.714 17.4294C19.4632 15.9898 19.2124 14.5503 18.9616 13.1108C18.5228 10.7324 17.551 8.47928 16.0464 6.35128C14.7925 4.53623 12.9744 3.6287 10.5921 3.6287C9.58899 3.6287 8.71128 4.31717 7.95896 5.69411C6.7051 7.88469 5.67065 12.2659 4.85564 18.8376C4.2914 23.2188 3.94659 28.5388 3.8212 34.7976C3.75851 36.1745 3.72716 38.1147 3.72716 40.6183V46.2512C3.72716 49.8187 4.10332 53.4175 4.85564 57.0476C5.2945 59.5512 5.85874 61.6792 6.54836 63.4316C7.30068 65.1215 8.27243 66.561 9.4636 67.7502C10.7175 69.002 12.1594 69.6278 13.7894 69.6278Z" fill="#7918D9"/>
<path d="M46.6226 74.6975C45.6195 74.6975 44.5224 74.3532 43.3312 73.6648C42.2028 73.0389 41.2624 72.2878 40.51 71.4116C39.6323 70.285 38.9427 67.1243 38.4412 61.9295C37.9396 56.7347 37.6261 50.7888 37.5008 44.0919C37.5008 42.5898 37.4694 41.4632 37.4067 40.7121C37.2813 25.0025 37.0306 15.7082 36.6544 12.8291L37.2186 11.5148C38.6606 11.7026 39.3816 13.4237 39.3816 16.6783L39.6637 41.5571C39.6637 43.3095 39.8204 46.6267 40.1339 51.5086C40.51 55.8898 40.6981 59.2069 40.6981 61.4601C40.6981 68.5951 43.0491 72.1627 47.7511 72.1627C50.635 72.1627 52.4845 65.5909 53.2995 52.4474L53.3935 50.5698C53.8324 33.358 54.0518 20.6214 54.0518 12.3597L53.9578 11.5148C53.8951 11.2644 53.8637 10.9828 53.8637 10.6699C53.8637 9.98139 54.3966 9.63716 55.4624 9.63716C56.2147 9.63716 56.6849 9.82492 56.873 10.2004C56.9984 10.8263 57.0611 11.9216 57.0611 13.4863C57.0611 18.243 56.873 21.435 56.4968 23.0623L56.5909 23.6256C56.5909 24.4392 56.4968 25.691 56.3088 27.3809L56.1207 31.1362V32.075C56.1834 32.3253 56.2147 32.6383 56.2147 33.0138C56.0893 34.5159 56.0266 35.9554 56.0266 37.3324C55.964 37.7705 55.9326 38.459 55.9326 39.3978C55.8072 45.3437 55.6818 50.5072 55.5564 54.8883C55.3684 60.3335 54.616 64.9337 53.2995 68.689C51.9202 72.6947 49.6946 74.6975 46.6226 74.6975Z" fill="#7918D9"/>
<path d="M89.7128 74.1342C88.7724 74.1342 88.1768 74.009 87.9261 73.7587C87.6753 73.5709 87.4872 73.0076 87.3618 72.0688C86.7976 67.4998 86.4528 64.6521 86.3274 63.5255L85.8572 59.7702C84.4779 59.4573 82.9106 59.3008 81.1552 59.3008L77.7697 59.113C76.2651 58.9253 75.168 58.8314 74.4783 58.8314C74.1022 58.8314 73.8827 58.9879 73.82 59.3008C73.82 59.4886 73.7887 59.5825 73.726 59.5825L73.5379 61.4601C73.4752 62.5867 73.1304 64.8399 72.5035 68.2196C72.19 69.9095 71.8139 71.2238 71.375 72.1627C70.8735 73.2267 70.4033 73.7587 69.9644 73.7587C69.5882 73.7587 69.1807 73.6022 68.7419 73.2892C68.303 72.9137 68.0836 72.5382 68.0836 72.1627L68.2717 71.5994C69.4002 67.1556 70.3406 62.7431 71.0929 58.362L72.2214 52.5413L73.3498 45.4062C73.3498 45.4062 73.6947 43.3408 74.3843 39.21C74.6978 37.5202 75.262 34.7976 76.077 31.0423C76.9547 26.7863 77.4876 23.8759 77.6757 22.3112C77.7384 22.1235 77.8638 20.9656 78.0518 18.8376C78.3026 16.4593 78.522 14.7068 78.7101 13.5802C78.8982 11.9529 79.0863 11.0141 79.2744 10.7637H79.9326C80.1207 10.8263 80.3402 10.8576 80.5909 10.8576C81.3433 10.8576 81.9075 10.6699 82.2837 10.2943C82.7225 10.2943 83.0987 10.4508 83.4121 10.7637C83.7883 11.0141 83.9764 11.327 83.9764 11.7026C83.9764 14.7068 84.1958 18.1491 84.6346 22.0296C84.8854 24.0324 85.0735 25.691 85.1989 27.0054C85.8885 35.0792 87.6439 50.2255 90.4651 72.4443V72.726C90.4651 73.3518 90.2144 73.8212 89.7128 74.1342ZM85.387 57.2354C84.76 48.2227 83.5689 34.9227 81.8135 17.3355L76.7353 42.402C75.2933 49.5997 74.5724 54.1373 74.5724 56.0149C74.5724 56.3279 75.7635 56.6095 78.1459 56.8599C80.5282 57.1102 82.6285 57.2354 84.4466 57.2354H85.387Z" fill="#7918D9"/>
<path d="M106.873 71.9749L106.779 68.5013C106.716 67.4998 106.685 66.3733 106.685 65.1215C106.685 64.4956 106.716 63.9636 106.779 63.5255L106.873 61.8356C106.873 61.2097 106.748 60.4587 106.497 59.5825C106.497 55.389 106.183 47.5968 105.556 36.2058C104.929 25.1903 104.585 17.711 104.522 13.768C100.635 13.768 98.0331 13.6741 96.7166 13.4863C95.4627 13.1734 94.8358 12.6727 94.8358 11.9842C95.1493 11.2957 95.7448 10.9515 96.6226 10.9515C98.5033 10.9515 101.231 11.0767 104.804 11.327C108.064 11.64 110.791 11.7964 112.986 11.7964H114.96L116.935 11.7026C118.064 11.7026 118.628 12.1094 118.628 12.923C118.628 13.2986 118.408 13.6115 117.97 13.8619C117.593 14.0496 117.123 14.1435 116.559 14.1435C115.305 14.1435 113.989 14.0809 112.609 13.9557L108.566 13.768C108.315 13.768 108.189 13.8619 108.189 14.0496C108.127 14.2374 108.095 14.832 108.095 15.8334C108.095 21.9044 108.472 31.1049 109.224 43.4347C109.914 56.2027 110.258 65.3718 110.258 70.9422C110.258 71.3803 109.976 71.7871 109.412 72.1627C108.91 72.5382 108.409 72.726 107.907 72.726L106.873 71.9749Z" fill="#7918D9"/>
<path d="M142.973 74.4158C142.22 73.6022 141.405 71.4429 140.527 67.938C139.65 64.433 138.835 60.49 138.082 56.1088C137.581 52.5413 136.86 49.0051 135.92 45.5001C135.167 42.3707 134.446 40.806 133.757 40.806H133.474C132.095 40.806 131.406 41.2441 131.406 42.1204C131.406 46.6267 131.656 53.4801 132.158 62.6806C132.409 68.3135 132.691 71.5994 133.004 72.5382L132.252 74.1342H130.935L130.183 73.3831C129.18 44.4674 128.678 24.7522 128.678 14.2374C128.678 13.5489 128.71 12.9856 128.772 12.5475C128.898 12.1094 129.117 11.7026 129.431 11.327C129.682 10.8889 130.12 10.6699 130.747 10.6699C133.945 10.6699 136.515 11.4522 138.459 13.0169C140.402 14.5816 141.374 16.8348 141.374 19.7764V26.6298C141.374 27.819 140.966 29.415 140.151 31.4178C139.399 33.4206 138.553 35.267 137.612 36.9569L136.39 39.3039C137.079 42.4959 138.427 48.254 140.433 56.5782C142.502 64.8399 143.631 69.221 143.819 69.7217C143.882 69.7843 143.944 69.9408 144.007 70.1911C144.132 70.4415 144.352 70.817 144.665 71.3177C145.104 72.194 145.324 72.945 145.324 73.5709C145.324 74.4471 144.979 74.8852 144.289 74.8852L142.973 74.4158ZM131.876 38.459C133.067 38.459 134.133 37.8644 135.073 36.6752C136.014 35.486 136.766 33.9526 137.33 32.075C138.333 28.2571 138.835 25.2216 138.835 22.9684C138.835 21.5289 138.741 20.3397 138.553 19.4009C138.427 18.4621 138.176 17.4607 137.8 16.3967C137.048 14.2061 135.261 13.1108 132.44 13.1108C132.127 13.1108 131.876 13.3924 131.688 13.9557C131.5 14.4564 131.406 14.9884 131.406 15.5517C131.406 19.7451 131.468 23.5317 131.594 26.9115C131.656 30.2912 131.688 34.0778 131.688 38.2712L131.876 38.459Z" fill="#7918D9"/>
<path d="M165.64 75.073C158.305 75.073 154.637 63.5568 154.637 40.5244V37.2385C154.637 19.7764 156.894 11.0454 161.408 11.0454C161.722 11.0454 162.16 11.1393 162.725 11.327C164.731 12.0155 166.706 12.4536 168.649 12.6414C169.84 12.8917 171.031 14.1122 172.223 16.3028C173.539 18.556 174.511 21.5289 175.138 25.2216C175.828 28.9143 176.172 32.7009 176.172 36.5813L175.984 37.0507C175.984 39.1161 176.016 40.9625 176.078 42.5898L176.172 48.2227C176.172 51.4147 176.047 54.2938 175.796 56.8599C175.42 60.7403 174.793 64.0888 173.915 66.9053C173.351 68.5951 172.693 70.0034 171.941 71.13C171.251 72.2565 170.373 73.1954 169.307 73.9464C168.304 74.6975 167.082 75.073 165.64 75.073ZM165.264 72.3504C167.709 72.3504 169.527 70.6292 170.718 67.1869C171.909 63.682 172.63 60.1145 172.881 56.4843C173.132 52.7291 173.257 49.7248 173.257 47.4717C173.257 44.9681 173.069 41.2754 172.693 36.3936C172.379 30.9484 172.223 27.2557 172.223 25.3155L171.846 24.5644L172.035 24.095C172.035 21.3411 171.251 18.9628 169.684 16.96C168.179 14.9571 166.329 13.9557 164.135 13.9557C161.251 13.9557 159.527 15.3327 158.963 18.0866C158.838 19.0254 158.712 20.371 158.587 22.1235C158.587 26.755 158.399 29.9157 158.023 31.6056C158.023 32.5444 157.929 34.0152 157.74 36.018L157.552 40.4305C157.552 41.8074 157.584 43.0279 157.646 44.0919L157.74 47.8472C157.74 50.7888 157.991 54.1686 158.493 57.9865C158.869 60.8029 159.308 63.1813 159.809 65.1215C160.311 67.0617 161.032 68.7203 161.972 70.0973C162.913 71.5994 164.01 72.3504 165.264 72.3504Z" fill="#7918D9"/>
<path d="M22.7232 86.245C22.4725 86.245 21.9709 86.0572 21.2186 85.6817C20.529 85.2436 20.0901 85.0245 19.902 85.0245C18.7736 84.5238 17.8959 83.6163 17.2689 82.3019C16.642 80.9876 16.1404 79.0786 15.7643 76.5751C15.3881 74.1342 15.0747 72.6321 14.8239 72.0688C13.0685 72.0688 11.4698 71.7871 10.0278 71.2238C8.5859 70.598 7.36338 69.753 6.36028 68.689C4.66756 66.9366 3.31965 64.2453 2.31656 60.6152C1.9404 59.3634 1.65828 57.83 1.4702 56.0149C1.28212 54.1999 1.18808 52.6039 1.18808 51.2269C1.12539 50.4133 1.09404 49.0051 1.09404 47.0022V42.7775C1.03135 41.4632 1 39.9298 1 38.1773C1 34.422 1.09404 30.166 1.28212 25.4094C1.4702 21.2785 1.87771 17.2729 2.50464 13.3924C3.13157 9.76233 4.10332 6.82069 5.41988 4.56752C6.73644 2.18917 8.5232 1 10.7802 1C12.9744 1 15.1374 1.90753 17.2689 3.72258C19.4632 5.47505 20.7171 7.41528 21.0305 9.54328C22.7859 19.5574 23.6637 31.7308 23.6637 46.0634C23.6637 57.0163 21.7202 65.278 17.8332 70.8483C17.8332 71.2238 17.9899 71.8184 18.3034 72.6321L18.7736 73.9464L19.0557 76.4812C19.2438 78.1711 19.4005 79.3603 19.5259 80.0488C19.714 80.7372 20.0588 81.4257 20.5603 82.1142C21.1246 82.8652 21.9082 83.2408 22.9113 83.2408H23.2875C25.2937 83.2408 26.2968 83.6476 26.2968 84.4612C26.2968 85.6504 25.1056 86.245 22.7232 86.245ZM13.7894 69.6278C16.1091 69.6278 17.7705 66.6862 18.7736 60.8029C19.8394 54.7319 20.3722 45.3437 20.3722 32.6383V30.1973L20.2782 24.2828L20.1842 21.748C20.1215 20.2458 19.9647 18.8063 19.714 17.4294C19.4632 15.9898 19.2124 14.5503 18.9616 13.1108C18.5228 10.7324 17.551 8.47928 16.0464 6.35128C14.7925 4.53623 12.9744 3.6287 10.5921 3.6287C9.58899 3.6287 8.71128 4.31717 7.95896 5.69411C6.7051 7.88469 5.67065 12.2659 4.85564 18.8376C4.2914 23.2188 3.94659 28.5388 3.8212 34.7976C3.75851 36.1745 3.72716 38.1147 3.72716 40.6183V46.2512C3.72716 49.8187 4.10332 53.4175 4.85564 57.0476C5.2945 59.5512 5.85874 61.6792 6.54836 63.4316C7.30068 65.1215 8.27243 66.561 9.4636 67.7502C10.7175 69.002 12.1594 69.6278 13.7894 69.6278Z" stroke="#7918D9" stroke-width="2" mask="url(#path-1-outside-1_2445_116)"/>
<path d="M46.6226 74.6975C45.6195 74.6975 44.5224 74.3532 43.3312 73.6648C42.2028 73.0389 41.2624 72.2878 40.51 71.4116C39.6323 70.285 38.9427 67.1243 38.4412 61.9295C37.9396 56.7347 37.6261 50.7888 37.5008 44.0919C37.5008 42.5898 37.4694 41.4632 37.4067 40.7121C37.2813 25.0025 37.0306 15.7082 36.6544 12.8291L37.2186 11.5148C38.6606 11.7026 39.3816 13.4237 39.3816 16.6783L39.6637 41.5571C39.6637 43.3095 39.8204 46.6267 40.1339 51.5086C40.51 55.8898 40.6981 59.2069 40.6981 61.4601C40.6981 68.5951 43.0491 72.1627 47.7511 72.1627C50.635 72.1627 52.4845 65.5909 53.2995 52.4474L53.3935 50.5698C53.8324 33.358 54.0518 20.6214 54.0518 12.3597L53.9578 11.5148C53.8951 11.2644 53.8637 10.9828 53.8637 10.6699C53.8637 9.98139 54.3966 9.63716 55.4624 9.63716C56.2147 9.63716 56.6849 9.82492 56.873 10.2004C56.9984 10.8263 57.0611 11.9216 57.0611 13.4863C57.0611 18.243 56.873 21.435 56.4968 23.0623L56.5909 23.6256C56.5909 24.4392 56.4968 25.691 56.3088 27.3809L56.1207 31.1362V32.075C56.1834 32.3253 56.2147 32.6383 56.2147 33.0138C56.0893 34.5159 56.0266 35.9554 56.0266 37.3324C55.964 37.7705 55.9326 38.459 55.9326 39.3978C55.8072 45.3437 55.6818 50.5072 55.5564 54.8883C55.3684 60.3335 54.616 64.9337 53.2995 68.689C51.9202 72.6947 49.6946 74.6975 46.6226 74.6975Z" stroke="#7918D9" stroke-width="2" mask="url(#path-1-outside-1_2445_116)"/>
<path d="M89.7128 74.1342C88.7724 74.1342 88.1768 74.009 87.9261 73.7587C87.6753 73.5709 87.4872 73.0076 87.3618 72.0688C86.7976 67.4998 86.4528 64.6521 86.3274 63.5255L85.8572 59.7702C84.4779 59.4573 82.9106 59.3008 81.1552 59.3008L77.7697 59.113C76.2651 58.9253 75.168 58.8314 74.4783 58.8314C74.1022 58.8314 73.8827 58.9879 73.82 59.3008C73.82 59.4886 73.7887 59.5825 73.726 59.5825L73.5379 61.4601C73.4752 62.5867 73.1304 64.8399 72.5035 68.2196C72.19 69.9095 71.8139 71.2238 71.375 72.1627C70.8735 73.2267 70.4033 73.7587 69.9644 73.7587C69.5882 73.7587 69.1807 73.6022 68.7419 73.2892C68.303 72.9137 68.0836 72.5382 68.0836 72.1627L68.2717 71.5994C69.4002 67.1556 70.3406 62.7431 71.0929 58.362L72.2214 52.5413L73.3498 45.4062C73.3498 45.4062 73.6947 43.3408 74.3843 39.21C74.6978 37.5202 75.262 34.7976 76.077 31.0423C76.9547 26.7863 77.4876 23.8759 77.6757 22.3112C77.7384 22.1235 77.8638 20.9656 78.0518 18.8376C78.3026 16.4593 78.522 14.7068 78.7101 13.5802C78.8982 11.9529 79.0863 11.0141 79.2744 10.7637H79.9326C80.1207 10.8263 80.3402 10.8576 80.5909 10.8576C81.3433 10.8576 81.9075 10.6699 82.2837 10.2943C82.7225 10.2943 83.0987 10.4508 83.4121 10.7637C83.7883 11.0141 83.9764 11.327 83.9764 11.7026C83.9764 14.7068 84.1958 18.1491 84.6346 22.0296C84.8854 24.0324 85.0735 25.691 85.1989 27.0054C85.8885 35.0792 87.6439 50.2255 90.4651 72.4443V72.726C90.4651 73.3518 90.2144 73.8212 89.7128 74.1342ZM85.387 57.2354C84.76 48.2227 83.5689 34.9227 81.8135 17.3355L76.7353 42.402C75.2933 49.5997 74.5724 54.1373 74.5724 56.0149C74.5724 56.3279 75.7635 56.6095 78.1459 56.8599C80.5282 57.1102 82.6285 57.2354 84.4466 57.2354H85.387Z" stroke="#7918D9" stroke-width="2" mask="url(#path-1-outside-1_2445_116)"/>
<path d="M106.873 71.9749L106.779 68.5013C106.716 67.4998 106.685 66.3733 106.685 65.1215C106.685 64.4956 106.716 63.9636 106.779 63.5255L106.873 61.8356C106.873 61.2097 106.748 60.4587 106.497 59.5825C106.497 55.389 106.183 47.5968 105.556 36.2058C104.929 25.1903 104.585 17.711 104.522 13.768C100.635 13.768 98.0331 13.6741 96.7166 13.4863C95.4627 13.1734 94.8358 12.6727 94.8358 11.9842C95.1493 11.2957 95.7448 10.9515 96.6226 10.9515C98.5033 10.9515 101.231 11.0767 104.804 11.327C108.064 11.64 110.791 11.7964 112.986 11.7964H114.96L116.935 11.7026C118.064 11.7026 118.628 12.1094 118.628 12.923C118.628 13.2986 118.408 13.6115 117.97 13.8619C117.593 14.0496 117.123 14.1435 116.559 14.1435C115.305 14.1435 113.989 14.0809 112.609 13.9557L108.566 13.768C108.315 13.768 108.189 13.8619 108.189 14.0496C108.127 14.2374 108.095 14.832 108.095 15.8334C108.095 21.9044 108.472 31.1049 109.224 43.4347C109.914 56.2027 110.258 65.3718 110.258 70.9422C110.258 71.3803 109.976 71.7871 109.412 72.1627C108.91 72.5382 108.409 72.726 107.907 72.726L106.873 71.9749Z" stroke="#7918D9" stroke-width="2" mask="url(#path-1-outside-1_2445_116)"/>
<path d="M142.973 74.4158C142.22 73.6022 141.405 71.4429 140.527 67.938C139.65 64.433 138.835 60.49 138.082 56.1088C137.581 52.5413 136.86 49.0051 135.92 45.5001C135.167 42.3707 134.446 40.806 133.757 40.806H133.474C132.095 40.806 131.406 41.2441 131.406 42.1204C131.406 46.6267 131.656 53.4801 132.158 62.6806C132.409 68.3135 132.691 71.5994 133.004 72.5382L132.252 74.1342H130.935L130.183 73.3831C129.18 44.4674 128.678 24.7522 128.678 14.2374C128.678 13.5489 128.71 12.9856 128.772 12.5475C128.898 12.1094 129.117 11.7026 129.431 11.327C129.682 10.8889 130.12 10.6699 130.747 10.6699C133.945 10.6699 136.515 11.4522 138.459 13.0169C140.402 14.5816 141.374 16.8348 141.374 19.7764V26.6298C141.374 27.819 140.966 29.415 140.151 31.4178C139.399 33.4206 138.553 35.267 137.612 36.9569L136.39 39.3039C137.079 42.4959 138.427 48.254 140.433 56.5782C142.502 64.8399 143.631 69.221 143.819 69.7217C143.882 69.7843 143.944 69.9408 144.007 70.1911C144.132 70.4415 144.352 70.817 144.665 71.3177C145.104 72.194 145.324 72.945 145.324 73.5709C145.324 74.4471 144.979 74.8852 144.289 74.8852L142.973 74.4158ZM131.876 38.459C133.067 38.459 134.133 37.8644 135.073 36.6752C136.014 35.486 136.766 33.9526 137.33 32.075C138.333 28.2571 138.835 25.2216 138.835 22.9684C138.835 21.5289 138.741 20.3397 138.553 19.4009C138.427 18.4621 138.176 17.4607 137.8 16.3967C137.048 14.2061 135.261 13.1108 132.44 13.1108C132.127 13.1108 131.876 13.3924 131.688 13.9557C131.5 14.4564 131.406 14.9884 131.406 15.5517C131.406 19.7451 131.468 23.5317 131.594 26.9115C131.656 30.2912 131.688 34.0778 131.688 38.2712L131.876 38.459Z" stroke="#7918D9" stroke-width="2" mask="url(#path-1-outside-1_2445_116)"/>
<path d="M165.64 75.073C158.305 75.073 154.637 63.5568 154.637 40.5244V37.2385C154.637 19.7764 156.894 11.0454 161.408 11.0454C161.722 11.0454 162.16 11.1393 162.725 11.327C164.731 12.0155 166.706 12.4536 168.649 12.6414C169.84 12.8917 171.031 14.1122 172.223 16.3028C173.539 18.556 174.511 21.5289 175.138 25.2216C175.828 28.9143 176.172 32.7009 176.172 36.5813L175.984 37.0507C175.984 39.1161 176.016 40.9625 176.078 42.5898L176.172 48.2227C176.172 51.4147 176.047 54.2938 175.796 56.8599C175.42 60.7403 174.793 64.0888 173.915 66.9053C173.351 68.5951 172.693 70.0034 171.941 71.13C171.251 72.2565 170.373 73.1954 169.307 73.9464C168.304 74.6975 167.082 75.073 165.64 75.073ZM165.264 72.3504C167.709 72.3504 169.527 70.6292 170.718 67.1869C171.909 63.682 172.63 60.1145 172.881 56.4843C173.132 52.7291 173.257 49.7248 173.257 47.4717C173.257 44.9681 173.069 41.2754 172.693 36.3936C172.379 30.9484 172.223 27.2557 172.223 25.3155L171.846 24.5644L172.035 24.095C172.035 21.3411 171.251 18.9628 169.684 16.96C168.179 14.9571 166.329 13.9557 164.135 13.9557C161.251 13.9557 159.527 15.3327 158.963 18.0866C158.838 19.0254 158.712 20.371 158.587 22.1235C158.587 26.755 158.399 29.9157 158.023 31.6056C158.023 32.5444 157.929 34.0152 157.74 36.018L157.552 40.4305C157.552 41.8074 157.584 43.0279 157.646 44.0919L157.74 47.8472C157.74 50.7888 157.991 54.1686 158.493 57.9865C158.869 60.8029 159.308 63.1813 159.809 65.1215C160.311 67.0617 161.032 68.7203 161.972 70.0973C162.913 71.5994 164.01 72.3504 165.264 72.3504Z" stroke="#7918D9" stroke-width="2" mask="url(#path-1-outside-1_2445_116)"/>
<path d="M25.5732 108.659C24.9637 108.659 24.4151 108.544 23.9275 108.313C23.4521 108.069 23.0742 107.741 22.7938 107.327C22.5134 106.913 22.3732 106.451 22.3732 105.939C22.3732 105.294 22.5378 104.783 22.8669 104.406C23.2083 104.029 23.7629 103.761 24.5309 103.603C25.3111 103.432 26.3717 103.347 27.7126 103.347H28.2978V102.781C28.2978 102.027 28.1393 101.485 27.8223 101.157C27.5176 100.816 27.0239 100.645 26.3412 100.645C25.9145 100.645 25.4818 100.7 25.0429 100.81C24.6163 100.919 24.1713 101.096 23.7081 101.339C23.5008 101.449 23.3241 101.473 23.1778 101.412C23.0437 101.339 22.9462 101.23 22.8852 101.084C22.8365 100.925 22.8365 100.767 22.8852 100.609C22.9462 100.439 23.0681 100.311 23.2509 100.226C23.7751 99.9579 24.2993 99.7632 24.8235 99.6415C25.3599 99.5198 25.8658 99.4589 26.3412 99.4589C27.4871 99.4589 28.3343 99.7388 28.8829 100.299C29.4436 100.858 29.724 101.729 29.724 102.909V107.856C29.724 108.367 29.4985 108.623 29.0475 108.623C28.572 108.623 28.3343 108.367 28.3343 107.856V106.962C28.1027 107.485 27.7431 107.899 27.2555 108.203C26.7801 108.507 26.2193 108.659 25.5732 108.659ZM25.8109 107.546C26.5423 107.546 27.1397 107.296 27.6029 106.797C28.0661 106.286 28.2978 105.641 28.2978 104.862V104.315H27.7309C26.7435 104.315 25.9633 104.363 25.3903 104.461C24.8296 104.546 24.4334 104.704 24.2018 104.935C23.9824 105.154 23.8726 105.459 23.8726 105.848C23.8726 106.347 24.0433 106.755 24.3846 107.071C24.7382 107.388 25.2136 107.546 25.8109 107.546Z" fill="#715E26"/>
<path d="M38.9632 108.659C38.1709 108.659 37.476 108.471 36.8787 108.093C36.2935 107.716 35.8364 107.187 35.5073 106.505C35.1903 105.812 35.0318 104.996 35.0318 104.059C35.0318 103.11 35.1903 102.294 35.5073 101.613C35.8364 100.919 36.2935 100.39 36.8787 100.025C37.476 99.6475 38.1709 99.4589 38.9632 99.4589C39.6581 99.4589 40.2676 99.611 40.7918 99.9153C41.3282 100.22 41.7244 100.639 41.9804 101.175V96.2461C41.9804 95.7471 42.2303 95.4976 42.7301 95.4976C43.2177 95.4976 43.4615 95.7471 43.4615 96.2461V107.856C43.4615 108.367 43.2177 108.623 42.7301 108.623C42.2424 108.623 41.9986 108.367 41.9986 107.856V106.907C41.7305 107.455 41.3282 107.887 40.7918 108.203C40.2676 108.507 39.6581 108.659 38.9632 108.659ZM39.2741 107.473C40.103 107.473 40.7674 107.181 41.2672 106.597C41.767 106 42.0169 105.154 42.0169 104.059C42.0169 102.952 41.767 102.106 41.2672 101.522C40.7674 100.938 40.103 100.645 39.2741 100.645C38.433 100.645 37.7625 100.938 37.2627 101.522C36.7751 102.106 36.5313 102.952 36.5313 104.059C36.5313 105.154 36.7751 106 37.2627 106.597C37.7625 107.181 38.433 107.473 39.2741 107.473Z" fill="#715E26"/>
<path d="M53.0433 108.659C52.1777 108.659 51.428 108.471 50.7941 108.093C50.1602 107.716 49.6665 107.187 49.313 106.505C48.9717 105.812 48.801 104.996 48.801 104.059C48.801 103.122 48.9717 102.313 49.313 101.631C49.6665 100.938 50.1602 100.402 50.7941 100.025C51.428 99.6475 52.1777 99.4589 53.0433 99.4589C53.8966 99.4589 54.6402 99.6475 55.2741 100.025C55.9202 100.402 56.4139 100.938 56.7552 101.631C57.1088 102.313 57.2855 103.122 57.2855 104.059C57.2855 104.996 57.1088 105.812 56.7552 106.505C56.4139 107.187 55.9202 107.716 55.2741 108.093C54.6402 108.471 53.8966 108.659 53.0433 108.659ZM53.0433 107.473C53.8722 107.473 54.5366 107.181 55.0364 106.597C55.5362 106 55.7861 105.154 55.7861 104.059C55.7861 102.952 55.5362 102.106 55.0364 101.522C54.5366 100.938 53.8722 100.645 53.0433 100.645C52.2021 100.645 51.5317 100.938 51.0319 101.522C50.5442 102.106 50.3004 102.952 50.3004 104.059C50.3004 105.154 50.5442 106 51.0319 106.597C51.5317 107.181 52.2021 107.473 53.0433 107.473Z" fill="#715E26"/>
<path d="M66.3856 108.659C65.4957 108.659 64.7277 108.471 64.0816 108.093C63.4355 107.704 62.9357 107.162 62.5822 106.469C62.2409 105.763 62.0702 104.941 62.0702 104.004C62.0702 102.593 62.4542 101.485 63.2222 100.682C63.9902 99.8666 65.0446 99.4589 66.3856 99.4589C66.8244 99.4589 67.2816 99.5319 67.757 99.678C68.2324 99.8118 68.6652 100.037 69.0553 100.353C69.2625 100.499 69.3478 100.682 69.3113 100.901C69.2869 101.12 69.1833 101.284 69.0004 101.394C68.8298 101.503 68.6286 101.479 68.397 101.321C68.0679 101.078 67.7387 100.907 67.4096 100.81C67.0926 100.712 66.7818 100.664 66.477 100.664C65.5505 100.664 64.8374 100.956 64.3376 101.54C63.8378 102.112 63.5879 102.94 63.5879 104.023C63.5879 105.081 63.8378 105.921 64.3376 106.542C64.8374 107.15 65.5505 107.455 66.477 107.455C66.7818 107.455 67.0926 107.406 67.4096 107.308C67.7387 107.211 68.0679 107.041 68.397 106.797C68.6286 106.639 68.8298 106.621 69.0004 106.743C69.1711 106.852 69.2625 107.016 69.2747 107.235C69.2991 107.455 69.2137 107.631 69.0187 107.765C68.6286 108.081 68.2019 108.313 67.7387 108.459C67.2755 108.592 66.8244 108.659 66.3856 108.659ZM66.3673 112C66.1479 112 65.9163 111.982 65.6724 111.945C65.4408 111.921 65.2275 111.866 65.0324 111.781C64.8496 111.708 64.746 111.592 64.7216 111.434C64.7094 111.276 64.7521 111.142 64.8496 111.032C64.9593 110.923 65.1117 110.905 65.3067 110.978C65.5749 111.087 65.9163 111.142 66.3307 111.142C66.6477 111.142 66.9037 111.081 67.0987 110.959C67.2938 110.85 67.3913 110.686 67.3913 110.467C67.3913 110.126 67.1597 109.955 66.6964 109.955C66.5989 109.955 66.5014 109.962 66.4039 109.974C66.3185 109.986 66.2149 110.004 66.093 110.028C65.898 110.089 65.7517 110.089 65.6542 110.028C65.5688 109.955 65.5444 109.803 65.581 109.572L65.8004 108.13H66.733L66.5319 109.28C66.6538 109.268 66.7696 109.262 66.8793 109.262C67.3303 109.262 67.696 109.371 67.9764 109.59C68.269 109.809 68.4153 110.114 68.4153 110.503C68.4153 110.953 68.2263 111.312 67.8484 111.58C67.4705 111.86 66.9768 112 66.3673 112Z" fill="#715E26"/>
<path d="M76.9892 108.659C76.3797 108.659 75.8311 108.544 75.3435 108.313C74.8681 108.069 74.4902 107.741 74.2098 107.327C73.9294 106.913 73.7892 106.451 73.7892 105.939C73.7892 105.294 73.9538 104.783 74.2829 104.406C74.6243 104.029 75.1789 103.761 75.9469 103.603C76.7271 103.432 77.7877 103.347 79.1286 103.347H79.7138V102.781C79.7138 102.027 79.5553 101.485 79.2383 101.157C78.9336 100.816 78.4399 100.645 77.7572 100.645C77.3305 100.645 76.8978 100.7 76.4589 100.81C76.0323 100.919 75.5873 101.096 75.1241 101.339C74.9168 101.449 74.7401 101.473 74.5938 101.412C74.4597 101.339 74.3622 101.23 74.3012 101.084C74.2525 100.925 74.2525 100.767 74.3012 100.609C74.3622 100.439 74.4841 100.311 74.6669 100.226C75.1911 99.9579 75.7153 99.7632 76.2395 99.6415C76.7759 99.5198 77.2818 99.4589 77.7572 99.4589C78.9031 99.4589 79.7503 99.7388 80.2989 100.299C80.8597 100.858 81.14 101.729 81.14 102.909V107.856C81.14 108.367 80.9145 108.623 80.4635 108.623C79.988 108.623 79.7503 108.367 79.7503 107.856V106.962C79.5187 107.485 79.1591 107.899 78.6715 108.203C78.1961 108.507 77.6353 108.659 76.9892 108.659ZM77.2269 107.546C77.9583 107.546 78.5557 107.296 79.0189 106.797C79.4821 106.286 79.7138 105.641 79.7138 104.862V104.315H79.1469C78.1595 104.315 77.3793 104.363 76.8064 104.461C76.2456 104.546 75.8494 104.704 75.6178 104.935C75.3984 105.154 75.2887 105.459 75.2887 105.848C75.2887 106.347 75.4593 106.755 75.8006 107.071C76.1542 107.388 76.6296 107.546 77.2269 107.546ZM74.9047 97.7795C74.7828 97.7795 74.6791 97.7369 74.5938 97.6517C74.5207 97.5665 74.5024 97.4387 74.5389 97.2683C74.6365 96.6963 74.8376 96.2156 75.1424 95.8262C75.4593 95.4368 75.8921 95.242 76.4406 95.242C76.7332 95.242 76.9953 95.3151 77.2269 95.4611C77.4585 95.595 77.6719 95.7532 77.8669 95.9357C78.0742 96.1183 78.2753 96.2826 78.4703 96.4286C78.6654 96.5625 78.8726 96.6294 79.0921 96.6294C79.3724 96.6294 79.604 96.526 79.7869 96.3191C79.9698 96.1122 80.0978 95.8262 80.1709 95.4611C80.2197 95.2299 80.3781 95.1203 80.6463 95.1325C80.7682 95.1325 80.8657 95.1751 80.9389 95.2603C81.0242 95.3455 81.0486 95.4733 81.012 95.6436C80.9145 96.2035 80.7073 96.6842 80.3903 97.0858C80.0856 97.4752 79.6589 97.6699 79.1103 97.6699C78.8178 97.6699 78.5557 97.603 78.3241 97.4691C78.0924 97.3231 77.873 97.1588 77.6658 96.9762C77.4707 96.7937 77.2757 96.6355 77.0806 96.5016C76.8856 96.3556 76.6784 96.2826 76.4589 96.2826C76.1785 96.2826 75.9469 96.386 75.7641 96.5929C75.5812 96.7998 75.4532 97.0858 75.3801 97.4509C75.3313 97.6821 75.1728 97.7916 74.9047 97.7795Z" fill="#715E26"/>
<path d="M90.6901 108.659C89.8246 108.659 89.0749 108.471 88.441 108.093C87.8071 107.716 87.3134 107.187 86.9598 106.505C86.6185 105.812 86.4478 104.996 86.4478 104.059C86.4478 103.122 86.6185 102.313 86.9598 101.631C87.3134 100.938 87.8071 100.402 88.441 100.025C89.0749 99.6475 89.8246 99.4589 90.6901 99.4589C91.5434 99.4589 92.287 99.6475 92.9209 100.025C93.567 100.402 94.0607 100.938 94.4021 101.631C94.7556 102.313 94.9324 103.122 94.9324 104.059C94.9324 104.996 94.7556 105.812 94.4021 106.505C94.0607 107.187 93.567 107.716 92.9209 108.093C92.287 108.471 91.5434 108.659 90.6901 108.659ZM90.6901 107.473C91.519 107.473 92.1834 107.181 92.6832 106.597C93.183 106 93.4329 105.154 93.4329 104.059C93.4329 102.952 93.183 102.106 92.6832 101.522C92.1834 100.938 91.519 100.645 90.6901 100.645C89.849 100.645 89.1785 100.938 88.6787 101.522C88.1911 102.106 87.9473 102.952 87.9473 104.059C87.9473 105.154 88.1911 106 88.6787 106.597C89.1785 107.181 89.849 107.473 90.6901 107.473Z" fill="#715E26"/>
<path d="M110.886 108.659C110.277 108.659 109.728 108.544 109.24 108.313C108.765 108.069 108.387 107.741 108.107 107.327C107.826 106.913 107.686 106.451 107.686 105.939C107.686 105.294 107.851 104.783 108.18 104.406C108.521 104.029 109.076 103.761 109.844 103.603C110.624 103.432 111.685 103.347 113.025 103.347H113.611V102.781C113.611 102.027 113.452 101.485 113.135 101.157C112.83 100.816 112.337 100.645 111.654 100.645C111.227 100.645 110.795 100.7 110.356 100.81C109.929 100.919 109.484 101.096 109.021 101.339C108.814 101.449 108.637 101.473 108.491 101.412C108.357 101.339 108.259 101.23 108.198 101.084C108.149 100.925 108.149 100.767 108.198 100.609C108.259 100.439 108.381 100.311 108.564 100.226C109.088 99.9579 109.612 99.7632 110.136 99.6415C110.673 99.5198 111.179 99.4589 111.654 99.4589C112.8 99.4589 113.647 99.7388 114.196 100.299C114.757 100.858 115.037 101.729 115.037 102.909V107.856C115.037 108.367 114.811 108.623 114.36 108.623C113.885 108.623 113.647 108.367 113.647 107.856V106.962C113.416 107.485 113.056 107.899 112.568 108.203C112.093 108.507 111.532 108.659 110.886 108.659ZM111.124 107.546C111.855 107.546 112.453 107.296 112.916 106.797C113.379 106.286 113.611 105.641 113.611 104.862V104.315H113.044C112.056 104.315 111.276 104.363 110.703 104.461C110.142 104.546 109.746 104.704 109.515 104.935C109.295 105.154 109.186 105.459 109.186 105.848C109.186 106.347 109.356 106.755 109.698 107.071C110.051 107.388 110.526 107.546 111.124 107.546Z" fill="#715E26"/>
<path d="M121.625 108.623C121.137 108.623 120.893 108.367 120.893 107.856V100.244C120.893 99.7449 121.131 99.4954 121.606 99.4954C122.094 99.4954 122.338 99.7449 122.338 100.244V101.138C122.63 100.579 123.045 100.159 123.581 99.8788C124.118 99.5989 124.721 99.4589 125.392 99.4589C127.5 99.4589 128.555 100.627 128.555 102.964V107.856C128.555 108.367 128.311 108.623 127.824 108.623C127.324 108.623 127.074 108.367 127.074 107.856V103.055C127.074 102.228 126.909 101.625 126.58 101.248C126.263 100.858 125.751 100.664 125.044 100.664C124.227 100.664 123.575 100.919 123.088 101.43C122.612 101.929 122.374 102.599 122.374 103.438V107.856C122.374 108.367 122.125 108.623 121.625 108.623Z" fill="#715E26"/>
<path d="M135.126 97.4874C134.48 97.4874 134.157 97.1831 134.157 96.5746C134.157 95.9783 134.48 95.6802 135.126 95.6802C135.772 95.6802 136.095 95.9783 136.095 96.5746C136.095 97.1831 135.772 97.4874 135.126 97.4874ZM135.126 108.586C134.638 108.586 134.395 108.319 134.395 107.783V100.317C134.395 99.7936 134.638 99.5319 135.126 99.5319C135.626 99.5319 135.876 99.7936 135.876 100.317V107.783C135.876 108.319 135.626 108.586 135.126 108.586Z" fill="#715E26"/>
<path d="M142.521 108.623C142.033 108.623 141.79 108.367 141.79 107.856V100.244C141.79 99.7449 142.027 99.4954 142.503 99.4954C142.99 99.4954 143.234 99.7449 143.234 100.244V101.12C143.502 100.585 143.874 100.177 144.35 99.897C144.825 99.6049 145.38 99.4589 146.014 99.4589C147.403 99.4589 148.293 100.061 148.683 101.266C148.952 100.706 149.348 100.268 149.872 99.9518C150.396 99.6232 151 99.4589 151.682 99.4589C153.657 99.4589 154.644 100.627 154.644 102.964V107.856C154.644 108.367 154.395 108.623 153.895 108.623C153.407 108.623 153.163 108.367 153.163 107.856V103.037C153.163 102.221 153.017 101.625 152.724 101.248C152.444 100.858 151.975 100.664 151.316 100.664C150.597 100.664 150.024 100.919 149.598 101.43C149.171 101.942 148.958 102.623 148.958 103.475V107.856C148.958 108.367 148.708 108.623 148.208 108.623C147.72 108.623 147.476 108.367 147.476 107.856V103.037C147.476 102.221 147.33 101.625 147.038 101.248C146.757 100.858 146.288 100.664 145.63 100.664C144.898 100.664 144.319 100.919 143.893 101.43C143.478 101.942 143.271 102.623 143.271 103.475V107.856C143.271 108.367 143.021 108.623 142.521 108.623Z" fill="#715E26"/>
<path d="M163.32 108.659C162.71 108.659 162.162 108.544 161.674 108.313C161.199 108.069 160.821 107.741 160.541 107.327C160.26 106.913 160.12 106.451 160.12 105.939C160.12 105.294 160.285 104.783 160.614 104.406C160.955 104.029 161.51 103.761 162.278 103.603C163.058 103.432 164.118 103.347 165.459 103.347H166.044V102.781C166.044 102.027 165.886 101.485 165.569 101.157C165.264 100.816 164.771 100.645 164.088 100.645C163.661 100.645 163.229 100.7 162.79 100.81C162.363 100.919 161.918 101.096 161.455 101.339C161.248 101.449 161.071 101.473 160.925 101.412C160.79 101.339 160.693 101.23 160.632 101.084C160.583 100.925 160.583 100.767 160.632 100.609C160.693 100.439 160.815 100.311 160.998 100.226C161.522 99.9579 162.046 99.7632 162.57 99.6415C163.107 99.5198 163.613 99.4589 164.088 99.4589C165.234 99.4589 166.081 99.7388 166.63 100.299C167.19 100.858 167.471 101.729 167.471 102.909V107.856C167.471 108.367 167.245 108.623 166.794 108.623C166.319 108.623 166.081 108.367 166.081 107.856V106.962C165.849 107.485 165.49 107.899 165.002 108.203C164.527 108.507 163.966 108.659 163.32 108.659ZM163.558 107.546C164.289 107.546 164.886 107.296 165.35 106.797C165.813 106.286 166.044 105.641 166.044 104.862V104.315H165.478C164.49 104.315 163.71 104.363 163.137 104.461C162.576 104.546 162.18 104.704 161.949 104.935C161.729 105.154 161.619 105.459 161.619 105.848C161.619 106.347 161.79 106.755 162.131 107.071C162.485 107.388 162.96 107.546 163.558 107.546Z" fill="#715E26"/>
<path d="M176.033 108.659C175.156 108.659 174.485 108.398 174.022 107.874C173.559 107.339 173.327 106.566 173.327 105.556V96.2461C173.327 95.7471 173.571 95.4976 174.059 95.4976C174.558 95.4976 174.808 95.7471 174.808 96.2461V105.447C174.808 106.749 175.326 107.4 176.363 107.4C176.472 107.4 176.57 107.394 176.655 107.382C176.74 107.369 176.826 107.363 176.911 107.363C177.045 107.351 177.137 107.382 177.185 107.455C177.246 107.528 177.277 107.674 177.277 107.893C177.277 108.306 177.07 108.544 176.655 108.605C176.558 108.629 176.454 108.641 176.344 108.641C176.235 108.653 176.131 108.659 176.033 108.659Z" fill="#715E26"/>
<mask id="path-3-outside-2_2445_116" maskUnits="userSpaceOnUse" x="201.329" y="29.9015" width="125" height="75" fill="black">
<rect fill="white" x="201.329" y="29.9015" width="125" height="75"/>
<path d="M204.68 103.191C203.928 103.191 203.552 102.095 203.552 99.9049C203.552 96.7755 203.52 93.9903 203.458 91.5494L203.27 83.1V75.4955C203.207 73.2423 203.176 70.7075 203.176 67.8911C203.176 59.5043 203.019 51.7433 202.705 44.6083L202.611 41.2285C202.423 37.5358 202.329 34.5316 202.329 32.2158L202.611 31.8403C202.674 31.7151 202.799 31.5587 202.988 31.3709C203.05 31.1831 203.207 31.058 203.458 30.9954C203.583 30.9328 203.803 30.9015 204.116 30.9015C206.31 30.9015 208.285 31.4022 210.041 32.4036C211.859 33.405 213.332 34.782 214.46 36.5344C216.655 39.9768 217.752 43.8885 217.752 48.2697C217.752 51.0862 217.282 53.9652 216.341 56.9068C215.464 59.8485 214.116 62.5085 212.297 64.8868C210.417 67.4529 208.316 68.9551 205.997 69.3932L206.185 79.8141L206.373 84.8837C206.624 90.8922 206.749 96.0244 206.749 100.28C206.749 101.282 206.592 102.033 206.279 102.534C206.028 102.972 205.495 103.191 204.68 103.191ZM205.997 65.9195C206.561 65.8569 207.125 65.6066 207.69 65.1685C207.815 65.1059 208.034 64.8555 208.348 64.4174C208.348 64.4174 208.567 64.1984 209.006 63.7602C213.081 59.692 215.119 54.5911 215.119 48.4575C215.119 44.9525 214.429 41.6979 213.05 38.6937C212.297 37.129 211.2 35.9085 209.758 35.0323C208.316 34.0935 206.624 33.6241 204.68 33.6241C204.68 37.1916 204.868 42.5429 205.244 49.6779C205.621 56.813 205.809 62.1642 205.809 65.7318L205.997 65.9195Z"/>
<path d="M244.844 103.472C243.904 103.472 243.308 103.347 243.057 103.097C242.807 102.909 242.619 102.346 242.493 101.407C241.929 96.8381 241.584 93.9903 241.459 92.8637L240.989 89.1084C239.609 88.7955 238.042 88.639 236.287 88.639L232.901 88.4513C231.396 88.2635 230.299 88.1696 229.61 88.1696C229.234 88.1696 229.014 88.3261 228.951 88.639C228.951 88.8268 228.92 88.9207 228.857 88.9207L228.669 90.7983C228.607 91.9249 228.262 94.1781 227.635 97.5578C227.321 99.2477 226.945 100.562 226.506 101.501C226.005 102.565 225.535 103.097 225.096 103.097C224.72 103.097 224.312 102.94 223.873 102.627C223.434 102.252 223.215 101.876 223.215 101.501L223.403 100.938C224.532 96.4938 225.472 92.0814 226.224 87.7002L227.353 81.8795L228.481 74.7445C228.481 74.7445 228.826 72.6791 229.516 68.5482C229.829 66.8584 230.393 64.1358 231.208 60.3805C232.086 56.1245 232.619 53.2141 232.807 51.6494C232.87 51.4617 232.995 50.3038 233.183 48.1758C233.434 45.7975 233.653 44.045 233.841 42.9184C234.03 41.2911 234.218 40.3523 234.406 40.1019H235.064C235.252 40.1645 235.472 40.1958 235.722 40.1958C236.475 40.1958 237.039 40.0081 237.415 39.6325C237.854 39.6325 238.23 39.789 238.543 40.1019C238.92 40.3523 239.108 40.6652 239.108 41.0408C239.108 44.045 239.327 47.4873 239.766 51.3678C240.017 53.3706 240.205 55.0292 240.33 56.3436C241.02 64.4174 242.775 79.5637 245.596 101.783V102.064C245.596 102.69 245.346 103.159 244.844 103.472ZM240.518 86.5736C239.891 77.5609 238.7 64.2609 236.945 46.6737L231.867 71.7402C230.425 78.9379 229.704 83.4755 229.704 85.3531C229.704 85.6661 230.895 85.9477 233.277 86.1981C235.66 86.4484 237.76 86.5736 239.578 86.5736H240.518Z"/>
<path d="M262.004 101.313L261.91 97.8395C261.848 96.8381 261.816 95.7115 261.816 94.4597C261.816 93.8338 261.848 93.3018 261.91 92.8637L262.004 91.1738C262.004 90.548 261.879 89.7969 261.628 88.9207C261.628 84.7273 261.315 76.935 260.688 65.544C260.061 54.5285 259.716 47.0492 259.653 43.1062C255.766 43.1062 253.165 43.0123 251.848 42.8245C250.594 42.5116 249.967 42.0109 249.967 41.3224C250.281 40.6339 250.876 40.2897 251.754 40.2897C253.635 40.2897 256.362 40.4149 259.935 40.6652C263.195 40.9782 265.923 41.1346 268.117 41.1346H270.092L272.067 41.0408C273.195 41.0408 273.759 41.4476 273.759 42.2612C273.759 42.6368 273.54 42.9497 273.101 43.2001C272.725 43.3878 272.255 43.4817 271.69 43.4817C270.437 43.4817 269.12 43.4191 267.741 43.2939L263.697 43.1062C263.446 43.1062 263.321 43.2001 263.321 43.3878C263.258 43.5756 263.227 44.1702 263.227 45.1716C263.227 51.2426 263.603 60.4431 264.355 72.7729C265.045 85.5409 265.39 94.7101 265.39 100.28C265.39 100.719 265.108 101.125 264.543 101.501C264.042 101.876 263.54 102.064 263.039 102.064L262.004 101.313Z"/>
<path d="M302.242 103.472C301.301 103.472 300.706 103.347 300.455 103.097C300.204 102.909 300.016 102.346 299.891 101.407C299.326 96.8381 298.982 93.9903 298.856 92.8637L298.386 89.1084C297.007 88.7955 295.439 88.639 293.684 88.639L290.299 88.4513C288.794 88.2635 287.697 88.1696 287.007 88.1696C286.631 88.1696 286.412 88.3261 286.349 88.639C286.349 88.8268 286.318 88.9207 286.255 88.9207L286.067 90.7983C286.004 91.9249 285.659 94.1781 285.032 97.5578C284.719 99.2477 284.343 100.562 283.904 101.501C283.402 102.565 282.932 103.097 282.493 103.097C282.117 103.097 281.71 102.94 281.271 102.627C280.832 102.252 280.612 101.876 280.612 101.501L280.801 100.938C281.929 96.4938 282.869 92.0814 283.622 87.7002L284.75 81.8795L285.879 74.7445C285.879 74.7445 286.223 72.6791 286.913 68.5482C287.227 66.8584 287.791 64.1358 288.606 60.3805C289.484 56.1245 290.016 53.2141 290.205 51.6494C290.267 51.4617 290.393 50.3038 290.581 48.1758C290.831 45.7975 291.051 44.045 291.239 42.9184C291.427 41.2911 291.615 40.3523 291.803 40.1019H292.461C292.65 40.1645 292.869 40.1958 293.12 40.1958C293.872 40.1958 294.436 40.0081 294.812 39.6325C295.251 39.6325 295.627 39.789 295.941 40.1019C296.317 40.3523 296.505 40.6652 296.505 41.0408C296.505 44.045 296.725 47.4873 297.163 51.3678C297.414 53.3706 297.602 55.0292 297.728 56.3436C298.417 64.4174 300.173 79.5637 302.994 101.783V102.064C302.994 102.69 302.743 103.159 302.242 103.472ZM297.916 86.5736C297.289 77.5609 296.098 64.2609 294.342 46.6737L289.264 71.7402C287.822 78.9379 287.101 83.4755 287.101 85.3531C287.101 85.6661 288.292 85.9477 290.675 86.1981C293.057 86.4484 295.157 86.5736 296.975 86.5736H297.916Z"/>
<path d="M314.23 103.754C313.54 103.629 312.882 103.347 312.255 102.909C311.628 102.534 311.283 102.064 311.22 101.501L311.69 100.75C311.941 100.75 312.505 100.844 313.383 101.031C314.073 101.282 314.637 101.407 315.076 101.407C316.455 101.407 317.678 100.875 318.743 99.811C319.809 98.6844 320.624 97.2449 321.188 95.4924C322.066 92.2378 322.505 89.171 322.505 86.292C322.505 81.9734 321.188 77.3419 318.555 72.3974C316.925 69.5183 315.671 67.2339 314.794 65.544C313.916 63.8541 313.132 61.9139 312.443 59.7233C311.628 57.1572 311.22 54.685 311.22 52.3066C311.22 50.0535 311.784 47.3935 312.913 44.3266C313.477 42.8871 314.261 41.7292 315.264 40.853C316.33 39.9142 317.458 39.4448 318.649 39.4448C319.464 39.4448 320.248 39.7264 321 40.2897C321.815 40.853 322.223 41.4476 322.223 42.0735C322.223 42.5742 321.815 42.8245 321 42.8245C320.75 42.8245 320.436 42.7306 320.06 42.5429C319.684 42.3551 319.339 42.2612 319.026 42.2612C318.085 42.2612 317.239 42.6368 316.486 43.3878C315.734 44.1389 315.17 45.109 314.794 46.2982C314.041 48.6139 313.665 50.7419 313.665 52.6822C313.665 53.8713 313.822 55.0918 314.135 56.3436C314.198 56.7191 314.261 57.032 314.324 57.2824C314.386 57.5327 314.418 57.7205 314.418 57.8457L314.982 59.7233L315.452 61.4132L316.204 63.1031C316.392 63.5412 316.581 63.948 316.769 64.3235C317.019 64.6365 317.239 64.9494 317.427 65.2624L318.555 67.2339C318.806 67.6094 319.339 68.5169 320.154 69.9565C320.969 71.3334 321.721 72.8042 322.411 74.3689C323.038 75.6833 323.508 76.935 323.822 78.1242C324.135 79.2508 324.417 80.6277 324.668 82.255C324.856 83.8197 324.95 85.5409 324.95 87.4185C324.95 90.4228 324.543 93.2392 323.728 95.8679C322.599 98.9973 320.969 101.188 318.838 102.44C317.646 103.191 316.267 103.566 314.7 103.566L314.23 103.754ZM321.753 42.5429C321.753 42.4803 321.721 42.449 321.659 42.449V42.5429H321.753Z"/>
</mask>
<path d="M204.68 103.191C203.928 103.191 203.552 102.095 203.552 99.9049C203.552 96.7755 203.52 93.9903 203.458 91.5494L203.27 83.1V75.4955C203.207 73.2423 203.176 70.7075 203.176 67.8911C203.176 59.5043 203.019 51.7433 202.705 44.6083L202.611 41.2285C202.423 37.5358 202.329 34.5316 202.329 32.2158L202.611 31.8403C202.674 31.7151 202.799 31.5587 202.988 31.3709C203.05 31.1831 203.207 31.058 203.458 30.9954C203.583 30.9328 203.803 30.9015 204.116 30.9015C206.31 30.9015 208.285 31.4022 210.041 32.4036C211.859 33.405 213.332 34.782 214.46 36.5344C216.655 39.9768 217.752 43.8885 217.752 48.2697C217.752 51.0862 217.282 53.9652 216.341 56.9068C215.464 59.8485 214.116 62.5085 212.297 64.8868C210.417 67.4529 208.316 68.9551 205.997 69.3932L206.185 79.8141L206.373 84.8837C206.624 90.8922 206.749 96.0244 206.749 100.28C206.749 101.282 206.592 102.033 206.279 102.534C206.028 102.972 205.495 103.191 204.68 103.191ZM205.997 65.9195C206.561 65.8569 207.125 65.6066 207.69 65.1685C207.815 65.1059 208.034 64.8555 208.348 64.4174C208.348 64.4174 208.567 64.1984 209.006 63.7602C213.081 59.692 215.119 54.5911 215.119 48.4575C215.119 44.9525 214.429 41.6979 213.05 38.6937C212.297 37.129 211.2 35.9085 209.758 35.0323C208.316 34.0935 206.624 33.6241 204.68 33.6241C204.68 37.1916 204.868 42.5429 205.244 49.6779C205.621 56.813 205.809 62.1642 205.809 65.7318L205.997 65.9195Z" fill="#D9A918"/>
<path d="M244.844 103.472C243.904 103.472 243.308 103.347 243.057 103.097C242.807 102.909 242.619 102.346 242.493 101.407C241.929 96.8381 241.584 93.9903 241.459 92.8637L240.989 89.1084C239.609 88.7955 238.042 88.639 236.287 88.639L232.901 88.4513C231.396 88.2635 230.299 88.1696 229.61 88.1696C229.234 88.1696 229.014 88.3261 228.951 88.639C228.951 88.8268 228.92 88.9207 228.857 88.9207L228.669 90.7983C228.607 91.9249 228.262 94.1781 227.635 97.5578C227.321 99.2477 226.945 100.562 226.506 101.501C226.005 102.565 225.535 103.097 225.096 103.097C224.72 103.097 224.312 102.94 223.873 102.627C223.434 102.252 223.215 101.876 223.215 101.501L223.403 100.938C224.532 96.4938 225.472 92.0814 226.224 87.7002L227.353 81.8795L228.481 74.7445C228.481 74.7445 228.826 72.6791 229.516 68.5482C229.829 66.8584 230.393 64.1358 231.208 60.3805C232.086 56.1245 232.619 53.2141 232.807 51.6494C232.87 51.4617 232.995 50.3038 233.183 48.1758C233.434 45.7975 233.653 44.045 233.841 42.9184C234.03 41.2911 234.218 40.3523 234.406 40.1019H235.064C235.252 40.1645 235.472 40.1958 235.722 40.1958C236.475 40.1958 237.039 40.0081 237.415 39.6325C237.854 39.6325 238.23 39.789 238.543 40.1019C238.92 40.3523 239.108 40.6652 239.108 41.0408C239.108 44.045 239.327 47.4873 239.766 51.3678C240.017 53.3706 240.205 55.0292 240.33 56.3436C241.02 64.4174 242.775 79.5637 245.596 101.783V102.064C245.596 102.69 245.346 103.159 244.844 103.472ZM240.518 86.5736C239.891 77.5609 238.7 64.2609 236.945 46.6737L231.867 71.7402C230.425 78.9379 229.704 83.4755 229.704 85.3531C229.704 85.6661 230.895 85.9477 233.277 86.1981C235.66 86.4484 237.76 86.5736 239.578 86.5736H240.518Z" fill="#D9A918"/>
<path d="M262.004 101.313L261.91 97.8395C261.848 96.8381 261.816 95.7115 261.816 94.4597C261.816 93.8338 261.848 93.3018 261.91 92.8637L262.004 91.1738C262.004 90.548 261.879 89.7969 261.628 88.9207C261.628 84.7273 261.315 76.935 260.688 65.544C260.061 54.5285 259.716 47.0492 259.653 43.1062C255.766 43.1062 253.165 43.0123 251.848 42.8245C250.594 42.5116 249.967 42.0109 249.967 41.3224C250.281 40.6339 250.876 40.2897 251.754 40.2897C253.635 40.2897 256.362 40.4149 259.935 40.6652C263.195 40.9782 265.923 41.1346 268.117 41.1346H270.092L272.067 41.0408C273.195 41.0408 273.759 41.4476 273.759 42.2612C273.759 42.6368 273.54 42.9497 273.101 43.2001C272.725 43.3878 272.255 43.4817 271.69 43.4817C270.437 43.4817 269.12 43.4191 267.741 43.2939L263.697 43.1062C263.446 43.1062 263.321 43.2001 263.321 43.3878C263.258 43.5756 263.227 44.1702 263.227 45.1716C263.227 51.2426 263.603 60.4431 264.355 72.7729C265.045 85.5409 265.39 94.7101 265.39 100.28C265.39 100.719 265.108 101.125 264.543 101.501C264.042 101.876 263.54 102.064 263.039 102.064L262.004 101.313Z" fill="#D9A918"/>
<path d="M302.242 103.472C301.301 103.472 300.706 103.347 300.455 103.097C300.204 102.909 300.016 102.346 299.891 101.407C299.326 96.8381 298.982 93.9903 298.856 92.8637L298.386 89.1084C297.007 88.7955 295.439 88.639 293.684 88.639L290.299 88.4513C288.794 88.2635 287.697 88.1696 287.007 88.1696C286.631 88.1696 286.412 88.3261 286.349 88.639C286.349 88.8268 286.318 88.9207 286.255 88.9207L286.067 90.7983C286.004 91.9249 285.659 94.1781 285.032 97.5578C284.719 99.2477 284.343 100.562 283.904 101.501C283.402 102.565 282.932 103.097 282.493 103.097C282.117 103.097 281.71 102.94 281.271 102.627C280.832 102.252 280.612 101.876 280.612 101.501L280.801 100.938C281.929 96.4938 282.869 92.0814 283.622 87.7002L284.75 81.8795L285.879 74.7445C285.879 74.7445 286.223 72.6791 286.913 68.5482C287.227 66.8584 287.791 64.1358 288.606 60.3805C289.484 56.1245 290.016 53.2141 290.205 51.6494C290.267 51.4617 290.393 50.3038 290.581 48.1758C290.831 45.7975 291.051 44.045 291.239 42.9184C291.427 41.2911 291.615 40.3523 291.803 40.1019H292.461C292.65 40.1645 292.869 40.1958 293.12 40.1958C293.872 40.1958 294.436 40.0081 294.812 39.6325C295.251 39.6325 295.627 39.789 295.941 40.1019C296.317 40.3523 296.505 40.6652 296.505 41.0408C296.505 44.045 296.725 47.4873 297.163 51.3678C297.414 53.3706 297.602 55.0292 297.728 56.3436C298.417 64.4174 300.173 79.5637 302.994 101.783V102.064C302.994 102.69 302.743 103.159 302.242 103.472ZM297.916 86.5736C297.289 77.5609 296.098 64.2609 294.342 46.6737L289.264 71.7402C287.822 78.9379 287.101 83.4755 287.101 85.3531C287.101 85.6661 288.292 85.9477 290.675 86.1981C293.057 86.4484 295.157 86.5736 296.975 86.5736H297.916Z" fill="#D9A918"/>
<path d="M314.23 103.754C313.54 103.629 312.882 103.347 312.255 102.909C311.628 102.534 311.283 102.064 311.22 101.501L311.69 100.75C311.941 100.75 312.505 100.844 313.383 101.031C314.073 101.282 314.637 101.407 315.076 101.407C316.455 101.407 317.678 100.875 318.743 99.811C319.809 98.6844 320.624 97.2449 321.188 95.4924C322.066 92.2378 322.505 89.171 322.505 86.292C322.505 81.9734 321.188 77.3419 318.555 72.3974C316.925 69.5183 315.671 67.2339 314.794 65.544C313.916 63.8541 313.132 61.9139 312.443 59.7233C311.628 57.1572 311.22 54.685 311.22 52.3066C311.22 50.0535 311.784 47.3935 312.913 44.3266C313.477 42.8871 314.261 41.7292 315.264 40.853C316.33 39.9142 317.458 39.4448 318.649 39.4448C319.464 39.4448 320.248 39.7264 321 40.2897C321.815 40.853 322.223 41.4476 322.223 42.0735C322.223 42.5742 321.815 42.8245 321 42.8245C320.75 42.8245 320.436 42.7306 320.06 42.5429C319.684 42.3551 319.339 42.2612 319.026 42.2612C318.085 42.2612 317.239 42.6368 316.486 43.3878C315.734 44.1389 315.17 45.109 314.794 46.2982C314.041 48.6139 313.665 50.7419 313.665 52.6822C313.665 53.8713 313.822 55.0918 314.135 56.3436C314.198 56.7191 314.261 57.032 314.324 57.2824C314.386 57.5327 314.418 57.7205 314.418 57.8457L314.982 59.7233L315.452 61.4132L316.204 63.1031C316.392 63.5412 316.581 63.948 316.769 64.3235C317.019 64.6365 317.239 64.9494 317.427 65.2624L318.555 67.2339C318.806 67.6094 319.339 68.5169 320.154 69.9565C320.969 71.3334 321.721 72.8042 322.411 74.3689C323.038 75.6833 323.508 76.935 323.822 78.1242C324.135 79.2508 324.417 80.6277 324.668 82.255C324.856 83.8197 324.95 85.5409 324.95 87.4185C324.95 90.4228 324.543 93.2392 323.728 95.8679C322.599 98.9973 320.969 101.188 318.838 102.44C317.646 103.191 316.267 103.566 314.7 103.566L314.23 103.754ZM321.753 42.5429C321.753 42.4803 321.721 42.449 321.659 42.449V42.5429H321.753Z" fill="#D9A918"/>
<path d="M204.68 103.191C203.928 103.191 203.552 102.095 203.552 99.9049C203.552 96.7755 203.52 93.9903 203.458 91.5494L203.27 83.1V75.4955C203.207 73.2423 203.176 70.7075 203.176 67.8911C203.176 59.5043 203.019 51.7433 202.705 44.6083L202.611 41.2285C202.423 37.5358 202.329 34.5316 202.329 32.2158L202.611 31.8403C202.674 31.7151 202.799 31.5587 202.988 31.3709C203.05 31.1831 203.207 31.058 203.458 30.9954C203.583 30.9328 203.803 30.9015 204.116 30.9015C206.31 30.9015 208.285 31.4022 210.041 32.4036C211.859 33.405 213.332 34.782 214.46 36.5344C216.655 39.9768 217.752 43.8885 217.752 48.2697C217.752 51.0862 217.282 53.9652 216.341 56.9068C215.464 59.8485 214.116 62.5085 212.297 64.8868C210.417 67.4529 208.316 68.9551 205.997 69.3932L206.185 79.8141L206.373 84.8837C206.624 90.8922 206.749 96.0244 206.749 100.28C206.749 101.282 206.592 102.033 206.279 102.534C206.028 102.972 205.495 103.191 204.68 103.191ZM205.997 65.9195C206.561 65.8569 207.125 65.6066 207.69 65.1685C207.815 65.1059 208.034 64.8555 208.348 64.4174C208.348 64.4174 208.567 64.1984 209.006 63.7602C213.081 59.692 215.119 54.5911 215.119 48.4575C215.119 44.9525 214.429 41.6979 213.05 38.6937C212.297 37.129 211.2 35.9085 209.758 35.0323C208.316 34.0935 206.624 33.6241 204.68 33.6241C204.68 37.1916 204.868 42.5429 205.244 49.6779C205.621 56.813 205.809 62.1642 205.809 65.7318L205.997 65.9195Z" stroke="#D9A918" stroke-width="2" mask="url(#path-3-outside-2_2445_116)"/>
<path d="M244.844 103.472C243.904 103.472 243.308 103.347 243.057 103.097C242.807 102.909 242.619 102.346 242.493 101.407C241.929 96.8381 241.584 93.9903 241.459 92.8637L240.989 89.1084C239.609 88.7955 238.042 88.639 236.287 88.639L232.901 88.4513C231.396 88.2635 230.299 88.1696 229.61 88.1696C229.234 88.1696 229.014 88.3261 228.951 88.639C228.951 88.8268 228.92 88.9207 228.857 88.9207L228.669 90.7983C228.607 91.9249 228.262 94.1781 227.635 97.5578C227.321 99.2477 226.945 100.562 226.506 101.501C226.005 102.565 225.535 103.097 225.096 103.097C224.72 103.097 224.312 102.94 223.873 102.627C223.434 102.252 223.215 101.876 223.215 101.501L223.403 100.938C224.532 96.4938 225.472 92.0814 226.224 87.7002L227.353 81.8795L228.481 74.7445C228.481 74.7445 228.826 72.6791 229.516 68.5482C229.829 66.8584 230.393 64.1358 231.208 60.3805C232.086 56.1245 232.619 53.2141 232.807 51.6494C232.87 51.4617 232.995 50.3038 233.183 48.1758C233.434 45.7975 233.653 44.045 233.841 42.9184C234.03 41.2911 234.218 40.3523 234.406 40.1019H235.064C235.252 40.1645 235.472 40.1958 235.722 40.1958C236.475 40.1958 237.039 40.0081 237.415 39.6325C237.854 39.6325 238.23 39.789 238.543 40.1019C238.92 40.3523 239.108 40.6652 239.108 41.0408C239.108 44.045 239.327 47.4873 239.766 51.3678C240.017 53.3706 240.205 55.0292 240.33 56.3436C241.02 64.4174 242.775 79.5637 245.596 101.783V102.064C245.596 102.69 245.346 103.159 244.844 103.472ZM240.518 86.5736C239.891 77.5609 238.7 64.2609 236.945 46.6737L231.867 71.7402C230.425 78.9379 229.704 83.4755 229.704 85.3531C229.704 85.6661 230.895 85.9477 233.277 86.1981C235.66 86.4484 237.76 86.5736 239.578 86.5736H240.518Z" stroke="#D9A918" stroke-width="2" mask="url(#path-3-outside-2_2445_116)"/>
<path d="M262.004 101.313L261.91 97.8395C261.848 96.8381 261.816 95.7115 261.816 94.4597C261.816 93.8338 261.848 93.3018 261.91 92.8637L262.004 91.1738C262.004 90.548 261.879 89.7969 261.628 88.9207C261.628 84.7273 261.315 76.935 260.688 65.544C260.061 54.5285 259.716 47.0492 259.653 43.1062C255.766 43.1062 253.165 43.0123 251.848 42.8245C250.594 42.5116 249.967 42.0109 249.967 41.3224C250.281 40.6339 250.876 40.2897 251.754 40.2897C253.635 40.2897 256.362 40.4149 259.935 40.6652C263.195 40.9782 265.923 41.1346 268.117 41.1346H270.092L272.067 41.0408C273.195 41.0408 273.759 41.4476 273.759 42.2612C273.759 42.6368 273.54 42.9497 273.101 43.2001C272.725 43.3878 272.255 43.4817 271.69 43.4817C270.437 43.4817 269.12 43.4191 267.741 43.2939L263.697 43.1062C263.446 43.1062 263.321 43.2001 263.321 43.3878C263.258 43.5756 263.227 44.1702 263.227 45.1716C263.227 51.2426 263.603 60.4431 264.355 72.7729C265.045 85.5409 265.39 94.7101 265.39 100.28C265.39 100.719 265.108 101.125 264.543 101.501C264.042 101.876 263.54 102.064 263.039 102.064L262.004 101.313Z" stroke="#D9A918" stroke-width="2" mask="url(#path-3-outside-2_2445_116)"/>
<path d="M302.242 103.472C301.301 103.472 300.706 103.347 300.455 103.097C300.204 102.909 300.016 102.346 299.891 101.407C299.326 96.8381 298.982 93.9903 298.856 92.8637L298.386 89.1084C297.007 88.7955 295.439 88.639 293.684 88.639L290.299 88.4513C288.794 88.2635 287.697 88.1696 287.007 88.1696C286.631 88.1696 286.412 88.3261 286.349 88.639C286.349 88.8268 286.318 88.9207 286.255 88.9207L286.067 90.7983C286.004 91.9249 285.659 94.1781 285.032 97.5578C284.719 99.2477 284.343 100.562 283.904 101.501C283.402 102.565 282.932 103.097 282.493 103.097C282.117 103.097 281.71 102.94 281.271 102.627C280.832 102.252 280.612 101.876 280.612 101.501L280.801 100.938C281.929 96.4938 282.869 92.0814 283.622 87.7002L284.75 81.8795L285.879 74.7445C285.879 74.7445 286.223 72.6791 286.913 68.5482C287.227 66.8584 287.791 64.1358 288.606 60.3805C289.484 56.1245 290.016 53.2141 290.205 51.6494C290.267 51.4617 290.393 50.3038 290.581 48.1758C290.831 45.7975 291.051 44.045 291.239 42.9184C291.427 41.2911 291.615 40.3523 291.803 40.1019H292.461C292.65 40.1645 292.869 40.1958 293.12 40.1958C293.872 40.1958 294.436 40.0081 294.812 39.6325C295.251 39.6325 295.627 39.789 295.941 40.1019C296.317 40.3523 296.505 40.6652 296.505 41.0408C296.505 44.045 296.725 47.4873 297.163 51.3678C297.414 53.3706 297.602 55.0292 297.728 56.3436C298.417 64.4174 300.173 79.5637 302.994 101.783V102.064C302.994 102.69 302.743 103.159 302.242 103.472ZM297.916 86.5736C297.289 77.5609 296.098 64.2609 294.342 46.6737L289.264 71.7402C287.822 78.9379 287.101 83.4755 287.101 85.3531C287.101 85.6661 288.292 85.9477 290.675 86.1981C293.057 86.4484 295.157 86.5736 296.975 86.5736H297.916Z" stroke="#D9A918" stroke-width="2" mask="url(#path-3-outside-2_2445_116)"/>
<path d="M314.23 103.754C313.54 103.629 312.882 103.347 312.255 102.909C311.628 102.534 311.283 102.064 311.22 101.501L311.69 100.75C311.941 100.75 312.505 100.844 313.383 101.031C314.073 101.282 314.637 101.407 315.076 101.407C316.455 101.407 317.678 100.875 318.743 99.811C319.809 98.6844 320.624 97.2449 321.188 95.4924C322.066 92.2378 322.505 89.171 322.505 86.292C322.505 81.9734 321.188 77.3419 318.555 72.3974C316.925 69.5183 315.671 67.2339 314.794 65.544C313.916 63.8541 313.132 61.9139 312.443 59.7233C311.628 57.1572 311.22 54.685 311.22 52.3066C311.22 50.0535 311.784 47.3935 312.913 44.3266C313.477 42.8871 314.261 41.7292 315.264 40.853C316.33 39.9142 317.458 39.4448 318.649 39.4448C319.464 39.4448 320.248 39.7264 321 40.2897C321.815 40.853 322.223 41.4476 322.223 42.0735C322.223 42.5742 321.815 42.8245 321 42.8245C320.75 42.8245 320.436 42.7306 320.06 42.5429C319.684 42.3551 319.339 42.2612 319.026 42.2612C318.085 42.2612 317.239 42.6368 316.486 43.3878C315.734 44.1389 315.17 45.109 314.794 46.2982C314.041 48.6139 313.665 50.7419 313.665 52.6822C313.665 53.8713 313.822 55.0918 314.135 56.3436C314.198 56.7191 314.261 57.032 314.324 57.2824C314.386 57.5327 314.418 57.7205 314.418 57.8457L314.982 59.7233L315.452 61.4132L316.204 63.1031C316.392 63.5412 316.581 63.948 316.769 64.3235C317.019 64.6365 317.239 64.9494 317.427 65.2624L318.555 67.2339C318.806 67.6094 319.339 68.5169 320.154 69.9565C320.969 71.3334 321.721 72.8042 322.411 74.3689C323.038 75.6833 323.508 76.935 323.822 78.1242C324.135 79.2508 324.417 80.6277 324.668 82.255C324.856 83.8197 324.95 85.5409 324.95 87.4185C324.95 90.4228 324.543 93.2392 323.728 95.8679C322.599 98.9973 320.969 101.188 318.838 102.44C317.646 103.191 316.267 103.566 314.7 103.566L314.23 103.754ZM321.753 42.5429C321.753 42.4803 321.721 42.449 321.659 42.449V42.5429H321.753Z" stroke="#D9A918" stroke-width="2" mask="url(#path-3-outside-2_2445_116)"/>
<path d="M220.053 18.4931C220.103 18.2863 220.129 18.0707 220.129 17.849C220.129 16.3085 218.851 15.0597 217.274 15.0597C215.698 15.0597 214.419 16.3085 214.419 17.849C214.419 18.0743 214.447 18.2933 214.498 18.5031C213.174 18.7453 212.172 19.8807 212.172 21.2448C212.172 22.7853 213.45 24.0342 215.027 24.0342C215.957 24.0342 216.783 23.5994 217.305 22.9266C217.826 23.5994 218.652 24.0342 219.582 24.0342C221.159 24.0342 222.437 22.7853 222.437 21.2448C222.437 19.8608 221.405 18.7121 220.053 18.4931Z" fill="#BF80FF"/>
<path d="M212.386 14.7383C213.186 15.9484 213.067 17.4356 212.12 18.0599C211.173 18.6842 209.757 18.2092 208.956 16.9991C208.156 15.7889 208.275 14.3018 209.222 13.6775C210.169 13.0532 211.585 13.5281 212.386 14.7383Z" fill="#BF80FF"/>
<path d="M222.246 14.7646C221.446 15.9748 221.565 17.4619 222.512 18.0862C223.459 18.7105 224.875 18.2356 225.676 17.0254C226.476 15.8153 226.358 14.3282 225.41 13.7039C224.463 13.0796 223.047 13.5545 222.246 14.7646Z" fill="#BF80FF"/>
<path d="M216.653 10.3752C217.251 12.0032 216.703 13.701 215.429 14.1672C214.155 14.6335 212.637 13.6917 212.04 12.0637C211.442 10.4356 211.99 8.73788 213.264 8.27163C214.538 7.80537 216.055 8.74718 216.653 10.3752Z" fill="#BF80FF"/>
<path d="M217.992 10.1851C217.394 11.8131 217.943 13.5109 219.217 13.9771C220.491 14.4434 222.008 13.5016 222.606 11.8736C223.204 10.2455 222.655 8.54777 221.381 8.08152C220.107 7.61526 218.59 8.55707 217.992 10.1851Z" fill="#BF80FF"/>
<path d="M255.344 18.4931C255.394 18.2863 255.421 18.0707 255.421 17.849C255.421 16.3085 254.142 15.0597 252.566 15.0597C250.989 15.0597 249.711 16.3085 249.711 17.849C249.711 18.0743 249.738 18.2933 249.79 18.5031C248.466 18.7453 247.464 19.8807 247.464 21.2448C247.464 22.7853 248.742 24.0342 250.318 24.0342C251.249 24.0342 252.075 23.5994 252.596 22.9266C253.117 23.5994 253.944 24.0342 254.874 24.0342C256.451 24.0342 257.729 22.7853 257.729 21.2448C257.729 19.8608 256.697 18.7121 255.344 18.4931Z" fill="#715E26"/>
<path d="M247.677 14.7383C248.478 15.9484 248.359 17.4356 247.412 18.0599C246.465 18.6842 245.048 18.2092 244.248 16.9991C243.447 15.7889 243.566 14.3018 244.513 13.6775C245.46 13.0532 246.877 13.5281 247.677 14.7383Z" fill="#715E26"/>
<path d="M257.538 14.7646C256.738 15.9748 256.856 17.4619 257.803 18.0862C258.75 18.7105 260.167 18.2356 260.968 17.0254C261.768 15.8153 261.649 14.3282 260.702 13.7039C259.755 13.0796 258.339 13.5545 257.538 14.7646Z" fill="#715E26"/>
<path d="M251.945 10.3752C252.543 12.0032 251.995 13.701 250.721 14.1672C249.446 14.6335 247.929 13.6917 247.331 12.0637C246.733 10.4356 247.282 8.73788 248.556 8.27163C249.83 7.80537 251.347 8.74718 251.945 10.3752Z" fill="#715E26"/>
<path d="M253.284 10.1851C252.686 11.8131 253.234 13.5109 254.508 13.9771C255.782 14.4434 257.3 13.5016 257.898 11.8736C258.495 10.2455 257.947 8.54777 256.673 8.08152C255.399 7.61526 253.882 8.55707 253.284 10.1851Z" fill="#715E26"/>
<path d="M290.636 18.4931C290.686 18.2863 290.712 18.0707 290.712 17.849C290.712 16.3085 289.434 15.0597 287.857 15.0597C286.281 15.0597 285.003 16.3085 285.003 17.849C285.003 18.0743 285.03 18.2933 285.082 18.5031C283.757 18.7453 282.755 19.8807 282.755 21.2448C282.755 22.7853 284.033 24.0342 285.61 24.0342C286.54 24.0342 287.367 23.5994 287.888 22.9266C288.409 23.5994 289.235 24.0342 290.166 24.0342C291.742 24.0342 293.02 22.7853 293.02 21.2448C293.02 19.8608 291.989 18.7121 290.636 18.4931Z" fill="#BF80FF"/>
<path d="M282.969 14.7383C283.769 15.9484 283.651 17.4356 282.704 18.0599C281.757 18.6842 280.34 18.2092 279.54 16.9991C278.739 15.7889 278.858 14.3018 279.805 13.6775C280.752 13.0532 282.169 13.5281 282.969 14.7383Z" fill="#BF80FF"/>
<path d="M292.83 14.7646C292.029 15.9748 292.148 17.4619 293.095 18.0862C294.042 18.7105 295.459 18.2356 296.259 17.0254C297.06 15.8153 296.941 14.3282 295.994 13.7039C295.047 13.0796 293.63 13.5545 292.83 14.7646Z" fill="#BF80FF"/>
<path d="M287.237 10.3752C287.834 12.0032 287.286 13.701 286.012 14.1672C284.738 14.6335 283.221 13.6917 282.623 12.0637C282.025 10.4356 282.573 8.73788 283.847 8.27163C285.121 7.80537 286.639 8.74718 287.237 10.3752Z" fill="#BF80FF"/>
<path d="M288.575 10.1851C287.978 11.8131 288.526 13.5109 289.8 13.9771C291.074 14.4434 292.591 13.5016 293.189 11.8736C293.787 10.2455 293.239 8.54777 291.965 8.08152C290.691 7.61526 289.173 8.55707 288.575 10.1851Z" fill="#BF80FF"/>
<path d="M325.927 18.4931C325.977 18.2863 326.004 18.0707 326.004 17.849C326.004 16.3085 324.726 15.0596 323.149 15.0596C321.572 15.0596 320.294 16.3085 320.294 17.849C320.294 18.0743 320.322 18.2933 320.373 18.5031C319.049 18.7453 318.047 19.8807 318.047 21.2448C318.047 22.7853 319.325 24.0342 320.902 24.0342C321.832 24.0342 322.658 23.5994 323.179 22.9265C323.701 23.5994 324.527 24.0342 325.457 24.0342C327.034 24.0342 328.312 22.7853 328.312 21.2448C328.312 19.8607 327.28 18.7121 325.927 18.4931Z" fill="#715E26"/>
<path d="M318.261 14.7383C319.061 15.9484 318.942 17.4356 317.995 18.0599C317.048 18.6842 315.632 18.2092 314.831 16.9991C314.031 15.7889 314.15 14.3018 315.097 13.6775C316.044 13.0532 317.46 13.5281 318.261 14.7383Z" fill="#715E26"/>
<path d="M328.121 14.7646C327.321 15.9748 327.44 17.4619 328.387 18.0862C329.334 18.7105 330.75 18.2356 331.551 17.0254C332.351 15.8153 332.232 14.3282 331.285 13.7039C330.338 13.0796 328.922 13.5545 328.121 14.7646Z" fill="#715E26"/>
<path d="M322.528 10.3752C323.126 12.0032 322.578 13.701 321.304 14.1672C320.03 14.6335 318.512 13.6917 317.914 12.0637C317.317 10.4356 317.865 8.73788 319.139 8.27163C320.413 7.80537 321.93 8.74718 322.528 10.3752Z" fill="#715E26"/>
<path d="M323.867 10.1851C323.269 11.8131 323.817 13.5109 325.091 13.9771C326.365 14.4434 327.883 13.5016 328.481 11.8736C329.079 10.2455 328.53 8.54777 327.256 8.08152C325.982 7.61526 324.465 8.55707 323.867 10.1851Z" fill="#715E26"/>
</svg>
