<svg width="223" height="76" viewBox="0 0 223 76" fill="none" xmlns="http://www.w3.org/2000/svg">
<mask id="path-1-outside-1_9_425" maskUnits="userSpaceOnUse" x="0" y="0" width="120" height="60" fill="black">
<rect fill="white" width="120" height="60"/>
<path d="M15.5258 58.097C15.3581 58.097 15.0227 57.9713 14.5197 57.7197C14.0585 57.4263 13.7651 57.2796 13.6393 57.2796C12.8847 56.9442 12.2978 56.3363 11.8786 55.456C11.4594 54.5756 11.124 53.297 10.8725 51.6202C10.621 49.9852 10.4114 48.9791 10.2437 48.6018C9.06988 48.6018 8.00088 48.4132 7.03669 48.0359C6.0725 47.6167 5.25503 47.0507 4.58429 46.3381C3.45241 45.1643 2.55109 43.3616 1.88035 40.9302C1.62882 40.0918 1.44018 39.0647 1.31441 37.849C1.18865 36.6332 1.12576 35.5642 1.12576 34.642C1.08384 34.097 1.06288 33.1538 1.06288 31.8123V28.9826C1.02096 28.1022 1 27.0751 1 25.9014C1 23.3861 1.06288 20.5354 1.18865 17.3494C1.31441 14.5826 1.5869 11.8996 2.00612 9.30045C2.42533 6.869 3.07511 4.8987 3.95546 3.38952C4.83581 1.79651 6.03058 1 7.53975 1C9.007 1 10.4533 1.60786 11.8786 2.82358C13.3459 3.99738 14.1843 5.29695 14.3939 6.72228C15.5677 13.4297 16.1546 21.5834 16.1546 31.1835C16.1546 38.5197 14.855 44.0533 12.2559 47.7844C12.2559 48.0359 12.3607 48.4341 12.5703 48.9791L12.8847 49.8595L13.0734 51.5573C13.1991 52.6892 13.3039 53.4857 13.3878 53.9468C13.5136 54.4079 13.7441 54.8691 14.0795 55.3302C14.4568 55.8333 14.9808 56.0848 15.6516 56.0848H15.9031C17.2446 56.0848 17.9153 56.3573 17.9153 56.9023C17.9153 57.6988 17.1188 58.097 15.5258 58.097ZM9.55198 46.9669C11.1031 46.9669 12.214 44.9966 12.8847 41.056C13.5974 36.9896 13.9537 30.7014 13.9537 22.1913V20.5564L13.8909 16.5948L13.828 14.897C13.786 13.8909 13.6812 12.9267 13.5136 12.0044C13.3459 11.0402 13.1782 10.076 13.0105 9.1118C12.717 7.51879 12.0673 6.00962 11.0612 4.58428C10.2227 3.36856 9.007 2.7607 7.41398 2.7607C6.74324 2.7607 6.15634 3.22184 5.65328 4.14411C4.81485 5.61136 4.12315 8.54586 3.57817 12.9476C3.20088 15.8821 2.97031 19.4454 2.88647 23.6376C2.84454 24.5599 2.82358 25.8594 2.82358 27.5363V31.3092C2.82358 33.6987 3.07511 36.1092 3.57817 38.5407C3.87162 40.2175 4.24891 41.6429 4.71005 42.8167C5.21311 43.9485 5.86289 44.9127 6.6594 45.7092C7.49783 46.5477 8.46202 46.9669 9.55198 46.9669Z"/>
<path d="M31.5067 50.3625C30.836 50.3625 30.1023 50.132 29.3058 49.6708C28.5512 49.2516 27.9224 48.7486 27.4194 48.1616C26.8325 47.4071 26.3713 45.29 26.036 41.8105C25.7006 38.3311 25.491 34.3485 25.4071 29.8629C25.4071 28.8568 25.3862 28.1022 25.3443 27.5992C25.2604 17.0769 25.0927 10.8515 24.8412 8.92316L25.2185 8.0428C26.1827 8.16857 26.6648 9.32141 26.6648 11.5013L26.8534 28.1651C26.8534 29.3389 26.9582 31.5607 27.1678 34.8306C27.4194 37.7651 27.5451 39.987 27.5451 41.4961C27.5451 46.2752 29.1172 48.6647 32.2613 48.6647C34.1897 48.6647 35.4264 44.263 35.9713 35.4594L36.0342 34.2018C36.3277 22.6734 36.4744 14.1424 36.4744 8.60875L36.4115 8.0428C36.3696 7.87512 36.3486 7.68647 36.3486 7.47686C36.3486 7.01573 36.705 6.78516 37.4176 6.78516C37.9207 6.78516 38.2351 6.91093 38.3609 7.16245C38.4447 7.58167 38.4866 8.31529 38.4866 9.36333C38.4866 12.5494 38.3609 14.6874 38.1093 15.7773L38.1722 16.1546C38.1722 16.6996 38.1093 17.538 37.9836 18.6699L37.8578 21.1852V21.814C37.8997 21.9817 37.9207 22.1913 37.9207 22.4428C37.8368 23.4489 37.7949 24.4131 37.7949 25.3354C37.753 25.6289 37.732 26.09 37.732 26.7188C37.6482 30.7014 37.5644 34.1599 37.4805 37.0944C37.3548 40.7416 36.8517 43.8228 35.9713 46.3381C35.0491 49.021 33.5609 50.3625 31.5067 50.3625Z"/>
<path d="M60.32 49.9852C59.6912 49.9852 59.2929 49.9014 59.1253 49.7337C58.9576 49.6079 58.8318 49.2306 58.748 48.6018C58.3707 45.5416 58.1401 43.6341 58.0563 42.8795L57.7418 40.3643C56.8196 40.1546 55.7715 40.0498 54.5977 40.0498L52.334 39.9241C51.3279 39.7983 50.5942 39.7354 50.1331 39.7354C49.8816 39.7354 49.7348 39.8402 49.6929 40.0498C49.6929 40.1756 49.672 40.2385 49.63 40.2385L49.5043 41.4961C49.4624 42.2507 49.2318 43.7599 48.8126 46.0237C48.603 47.1555 48.3514 48.0359 48.058 48.6647C47.7226 49.3774 47.4082 49.7337 47.1148 49.7337C46.8632 49.7337 46.5907 49.6289 46.2973 49.4193C46.0038 49.1678 45.8571 48.9162 45.8571 48.6647L45.9829 48.2874C46.7375 45.311 47.3663 42.3555 47.8693 39.421L48.6239 35.5223L49.3785 30.7433C49.3785 30.7433 49.6091 29.3599 50.0702 26.5931C50.2798 25.4612 50.6571 23.6376 51.2021 21.1223C51.789 18.2716 52.1453 16.3223 52.2711 15.2743C52.313 15.1485 52.3969 14.3729 52.5226 12.9476C52.6903 11.3546 52.837 10.1808 52.9628 9.42621C53.0886 8.33626 53.2143 7.70743 53.3401 7.53975H53.7803C53.906 7.58167 54.0528 7.60263 54.2204 7.60263C54.7235 7.60263 55.1008 7.47687 55.3523 7.22534C55.6458 7.22534 55.8973 7.33014 56.1069 7.53975C56.3584 7.70743 56.4842 7.91704 56.4842 8.16857C56.4842 10.1808 56.6309 12.4865 56.9244 15.0856C57.0921 16.4271 57.2178 17.538 57.3017 18.4184C57.7628 23.8262 58.9366 33.9712 60.8231 48.8534V49.042C60.8231 49.4612 60.6554 49.7756 60.32 49.9852ZM57.4274 38.6664C57.0082 32.6297 56.2117 23.7214 55.0379 11.9415L51.6423 28.731C50.6781 33.552 50.196 36.5913 50.196 37.849C50.196 38.0586 50.9925 38.2472 52.5855 38.4149C54.1785 38.5826 55.5829 38.6664 56.7986 38.6664H57.4274Z"/>
<path d="M71.7945 48.5389L71.7317 46.2123C71.6897 45.5416 71.6688 44.787 71.6688 43.9485C71.6688 43.5293 71.6897 43.173 71.7317 42.8795L71.7945 41.7477C71.7945 41.3284 71.7107 40.8254 71.543 40.2385C71.543 37.4298 71.3334 32.2105 70.9142 24.5808C70.495 17.2026 70.2644 12.193 70.2225 9.55198C67.6234 9.55198 65.8836 9.4891 65.0033 9.36333C64.1648 9.15373 63.7456 8.81835 63.7456 8.35722C63.9552 7.89608 64.3535 7.66551 64.9404 7.66551C66.198 7.66551 68.0216 7.74936 70.4111 7.91704C72.591 8.12665 74.4146 8.23145 75.8819 8.23145H77.2024L78.5229 8.16857C79.2775 8.16857 79.6548 8.44106 79.6548 8.98604C79.6548 9.23757 79.5081 9.44718 79.2146 9.61486C78.9631 9.74063 78.6487 9.80351 78.2714 9.80351C77.433 9.80351 76.5526 9.76159 75.6304 9.67774L72.9264 9.55198C72.7587 9.55198 72.6749 9.61486 72.6749 9.74062C72.633 9.86639 72.612 10.2646 72.612 10.9354C72.612 15.0018 72.8635 21.1642 73.3666 29.4228C73.8277 37.9747 74.0583 44.1162 74.0583 47.8472C74.0583 48.1407 73.8697 48.4132 73.4924 48.6647C73.157 48.9162 72.8216 49.042 72.4862 49.042L71.7945 48.5389Z"/>
<path d="M95.9334 50.1739C95.4304 49.6289 94.8854 48.1826 94.2985 45.835C93.7116 43.4874 93.1666 40.8464 92.6636 37.9118C92.3282 35.5223 91.8461 33.1538 91.2173 30.8062C90.7142 28.7101 90.2321 27.6621 89.771 27.6621H89.5823C88.6601 27.6621 88.1989 27.9555 88.1989 28.5424C88.1989 31.5607 88.3666 36.1511 88.702 42.3136C88.8697 46.0865 89.0583 48.2874 89.2679 48.9162L88.7649 49.9852H87.8845L87.3815 49.4822C86.7107 30.1145 86.3754 16.9092 86.3754 9.86639C86.3754 9.40525 86.3963 9.02796 86.4382 8.73451C86.5221 8.44106 86.6688 8.16857 86.8784 7.91704C87.0461 7.62359 87.3395 7.47686 87.7588 7.47686C89.8968 7.47686 91.6155 8.00088 92.9151 9.04892C94.2147 10.097 94.8644 11.6061 94.8644 13.5764V18.1668C94.8644 18.9633 94.592 20.0323 94.047 21.3738C93.5439 22.7153 92.978 23.952 92.3492 25.0839L91.5317 26.6559C91.9928 28.7939 92.8941 32.6507 94.2356 38.2263C95.619 43.7599 96.3736 46.6944 96.4994 47.0298C96.5413 47.0717 96.5832 47.1765 96.6251 47.3442C96.709 47.5119 96.8557 47.7634 97.0653 48.0988C97.3588 48.6857 97.5055 49.1887 97.5055 49.6079C97.5055 50.1948 97.2749 50.4883 96.8138 50.4883L95.9334 50.1739ZM88.5133 26.09C89.3099 26.09 90.0225 25.6917 90.6513 24.8952C91.2802 24.0987 91.7832 23.0717 92.1605 21.814C92.8313 19.2568 93.1666 17.2236 93.1666 15.7144C93.1666 14.7502 93.1037 13.9537 92.978 13.3249C92.8941 12.6961 92.7264 12.0253 92.4749 11.3127C91.9719 9.84543 90.7771 9.1118 88.8906 9.1118C88.681 9.1118 88.5133 9.30045 88.3876 9.67774C88.2618 10.0131 88.1989 10.3694 88.1989 10.7467C88.1989 13.5555 88.2409 16.0917 88.3247 18.3555C88.3666 20.6192 88.3876 23.1555 88.3876 25.9642L88.5133 26.09Z"/>
<path d="M111.091 50.6141C106.186 50.6141 103.733 42.9005 103.733 27.4734V25.2725C103.733 13.5764 105.242 7.72839 108.261 7.72839C108.47 7.72839 108.764 7.79128 109.141 7.91704C110.483 8.37818 111.803 8.67163 113.103 8.79739C113.899 8.96508 114.696 9.78255 115.492 11.2498C116.373 12.759 117.022 14.7502 117.442 17.2236C117.903 19.697 118.133 22.2332 118.133 24.8324L118.008 25.1468C118.008 26.5302 118.029 27.7669 118.07 28.8568L118.133 32.6297C118.133 34.7677 118.049 36.6961 117.882 38.4149C117.63 41.014 117.211 43.2568 116.624 45.1433C116.247 46.2752 115.807 47.2184 115.304 47.973C114.842 48.7276 114.256 49.3564 113.543 49.8595C112.872 50.3625 112.055 50.6141 111.091 50.6141ZM110.839 48.7905C112.474 48.7905 113.69 47.6376 114.486 45.3319C115.283 42.9843 115.765 40.5948 115.932 38.1634C116.1 35.6481 116.184 33.6359 116.184 32.1267C116.184 30.4498 116.058 27.9765 115.807 24.7066C115.597 21.0594 115.492 18.5861 115.492 17.2865L115.241 16.7834L115.366 16.469C115.366 14.6245 114.842 13.0315 113.794 11.69C112.788 10.3485 111.552 9.67774 110.084 9.67774C108.156 9.67774 107.003 10.6 106.626 12.4446C106.542 13.0734 106.458 13.9747 106.374 15.1485C106.374 18.2507 106.249 20.3677 105.997 21.4996C105.997 22.1284 105.934 23.1136 105.808 24.4551L105.683 27.4105C105.683 28.3328 105.704 29.1503 105.746 29.8629L105.808 32.3782C105.808 34.3485 105.976 36.6123 106.311 39.1695C106.563 41.056 106.856 42.649 107.192 43.9485C107.527 45.2481 108.009 46.359 108.638 47.2813C109.267 48.2874 110.001 48.7905 110.839 48.7905Z"/>
</mask>
<path d="M15.5258 58.097C15.3581 58.097 15.0227 57.9713 14.5197 57.7197C14.0585 57.4263 13.7651 57.2796 13.6393 57.2796C12.8847 56.9442 12.2978 56.3363 11.8786 55.456C11.4594 54.5756 11.124 53.297 10.8725 51.6202C10.621 49.9852 10.4114 48.9791 10.2437 48.6018C9.06988 48.6018 8.00088 48.4132 7.03669 48.0359C6.0725 47.6167 5.25503 47.0507 4.58429 46.3381C3.45241 45.1643 2.55109 43.3616 1.88035 40.9302C1.62882 40.0918 1.44018 39.0647 1.31441 37.849C1.18865 36.6332 1.12576 35.5642 1.12576 34.642C1.08384 34.097 1.06288 33.1538 1.06288 31.8123V28.9826C1.02096 28.1022 1 27.0751 1 25.9014C1 23.3861 1.06288 20.5354 1.18865 17.3494C1.31441 14.5826 1.5869 11.8996 2.00612 9.30045C2.42533 6.869 3.07511 4.8987 3.95546 3.38952C4.83581 1.79651 6.03058 1 7.53975 1C9.007 1 10.4533 1.60786 11.8786 2.82358C13.3459 3.99738 14.1843 5.29695 14.3939 6.72228C15.5677 13.4297 16.1546 21.5834 16.1546 31.1835C16.1546 38.5197 14.855 44.0533 12.2559 47.7844C12.2559 48.0359 12.3607 48.4341 12.5703 48.9791L12.8847 49.8595L13.0734 51.5573C13.1991 52.6892 13.3039 53.4857 13.3878 53.9468C13.5136 54.4079 13.7441 54.8691 14.0795 55.3302C14.4568 55.8333 14.9808 56.0848 15.6516 56.0848H15.9031C17.2446 56.0848 17.9153 56.3573 17.9153 56.9023C17.9153 57.6988 17.1188 58.097 15.5258 58.097ZM9.55198 46.9669C11.1031 46.9669 12.214 44.9966 12.8847 41.056C13.5974 36.9896 13.9537 30.7014 13.9537 22.1913V20.5564L13.8909 16.5948L13.828 14.897C13.786 13.8909 13.6812 12.9267 13.5136 12.0044C13.3459 11.0402 13.1782 10.076 13.0105 9.1118C12.717 7.51879 12.0673 6.00962 11.0612 4.58428C10.2227 3.36856 9.007 2.7607 7.41398 2.7607C6.74324 2.7607 6.15634 3.22184 5.65328 4.14411C4.81485 5.61136 4.12315 8.54586 3.57817 12.9476C3.20088 15.8821 2.97031 19.4454 2.88647 23.6376C2.84454 24.5599 2.82358 25.8594 2.82358 27.5363V31.3092C2.82358 33.6987 3.07511 36.1092 3.57817 38.5407C3.87162 40.2175 4.24891 41.6429 4.71005 42.8167C5.21311 43.9485 5.86289 44.9127 6.6594 45.7092C7.49783 46.5477 8.46202 46.9669 9.55198 46.9669Z" fill="#7918D9"/>
<path d="M31.5067 50.3625C30.836 50.3625 30.1023 50.132 29.3058 49.6708C28.5512 49.2516 27.9224 48.7486 27.4194 48.1616C26.8325 47.4071 26.3713 45.29 26.036 41.8105C25.7006 38.3311 25.491 34.3485 25.4071 29.8629C25.4071 28.8568 25.3862 28.1022 25.3443 27.5992C25.2604 17.0769 25.0927 10.8515 24.8412 8.92316L25.2185 8.0428C26.1827 8.16857 26.6648 9.32141 26.6648 11.5013L26.8534 28.1651C26.8534 29.3389 26.9582 31.5607 27.1678 34.8306C27.4194 37.7651 27.5451 39.987 27.5451 41.4961C27.5451 46.2752 29.1172 48.6647 32.2613 48.6647C34.1897 48.6647 35.4264 44.263 35.9713 35.4594L36.0342 34.2018C36.3277 22.6734 36.4744 14.1424 36.4744 8.60875L36.4115 8.0428C36.3696 7.87512 36.3486 7.68647 36.3486 7.47686C36.3486 7.01573 36.705 6.78516 37.4176 6.78516C37.9207 6.78516 38.2351 6.91093 38.3609 7.16245C38.4447 7.58167 38.4866 8.31529 38.4866 9.36333C38.4866 12.5494 38.3609 14.6874 38.1093 15.7773L38.1722 16.1546C38.1722 16.6996 38.1093 17.538 37.9836 18.6699L37.8578 21.1852V21.814C37.8997 21.9817 37.9207 22.1913 37.9207 22.4428C37.8368 23.4489 37.7949 24.4131 37.7949 25.3354C37.753 25.6289 37.732 26.09 37.732 26.7188C37.6482 30.7014 37.5644 34.1599 37.4805 37.0944C37.3548 40.7416 36.8517 43.8228 35.9713 46.3381C35.0491 49.021 33.5609 50.3625 31.5067 50.3625Z" fill="#7918D9"/>
<path d="M60.32 49.9852C59.6912 49.9852 59.2929 49.9014 59.1253 49.7337C58.9576 49.6079 58.8318 49.2306 58.748 48.6018C58.3707 45.5416 58.1401 43.6341 58.0563 42.8795L57.7418 40.3643C56.8196 40.1546 55.7715 40.0498 54.5977 40.0498L52.334 39.9241C51.3279 39.7983 50.5942 39.7354 50.1331 39.7354C49.8816 39.7354 49.7348 39.8402 49.6929 40.0498C49.6929 40.1756 49.672 40.2385 49.63 40.2385L49.5043 41.4961C49.4624 42.2507 49.2318 43.7599 48.8126 46.0237C48.603 47.1555 48.3514 48.0359 48.058 48.6647C47.7226 49.3774 47.4082 49.7337 47.1148 49.7337C46.8632 49.7337 46.5907 49.6289 46.2973 49.4193C46.0038 49.1678 45.8571 48.9162 45.8571 48.6647L45.9829 48.2874C46.7375 45.311 47.3663 42.3555 47.8693 39.421L48.6239 35.5223L49.3785 30.7433C49.3785 30.7433 49.6091 29.3599 50.0702 26.5931C50.2798 25.4612 50.6571 23.6376 51.2021 21.1223C51.789 18.2716 52.1453 16.3223 52.2711 15.2743C52.313 15.1485 52.3969 14.3729 52.5226 12.9476C52.6903 11.3546 52.837 10.1808 52.9628 9.42621C53.0886 8.33626 53.2143 7.70743 53.3401 7.53975H53.7803C53.906 7.58167 54.0528 7.60263 54.2204 7.60263C54.7235 7.60263 55.1008 7.47687 55.3523 7.22534C55.6458 7.22534 55.8973 7.33014 56.1069 7.53975C56.3584 7.70743 56.4842 7.91704 56.4842 8.16857C56.4842 10.1808 56.6309 12.4865 56.9244 15.0856C57.0921 16.4271 57.2178 17.538 57.3017 18.4184C57.7628 23.8262 58.9366 33.9712 60.8231 48.8534V49.042C60.8231 49.4612 60.6554 49.7756 60.32 49.9852ZM57.4274 38.6664C57.0082 32.6297 56.2117 23.7214 55.0379 11.9415L51.6423 28.731C50.6781 33.552 50.196 36.5913 50.196 37.849C50.196 38.0586 50.9925 38.2472 52.5855 38.4149C54.1785 38.5826 55.5829 38.6664 56.7986 38.6664H57.4274Z" fill="#7918D9"/>
<path d="M71.7945 48.5389L71.7317 46.2123C71.6897 45.5416 71.6688 44.787 71.6688 43.9485C71.6688 43.5293 71.6897 43.173 71.7317 42.8795L71.7945 41.7477C71.7945 41.3284 71.7107 40.8254 71.543 40.2385C71.543 37.4298 71.3334 32.2105 70.9142 24.5808C70.495 17.2026 70.2644 12.193 70.2225 9.55198C67.6234 9.55198 65.8836 9.4891 65.0033 9.36333C64.1648 9.15373 63.7456 8.81835 63.7456 8.35722C63.9552 7.89608 64.3535 7.66551 64.9404 7.66551C66.198 7.66551 68.0216 7.74936 70.4111 7.91704C72.591 8.12665 74.4146 8.23145 75.8819 8.23145H77.2024L78.5229 8.16857C79.2775 8.16857 79.6548 8.44106 79.6548 8.98604C79.6548 9.23757 79.5081 9.44718 79.2146 9.61486C78.9631 9.74063 78.6487 9.80351 78.2714 9.80351C77.433 9.80351 76.5526 9.76159 75.6304 9.67774L72.9264 9.55198C72.7587 9.55198 72.6749 9.61486 72.6749 9.74062C72.633 9.86639 72.612 10.2646 72.612 10.9354C72.612 15.0018 72.8635 21.1642 73.3666 29.4228C73.8277 37.9747 74.0583 44.1162 74.0583 47.8472C74.0583 48.1407 73.8697 48.4132 73.4924 48.6647C73.157 48.9162 72.8216 49.042 72.4862 49.042L71.7945 48.5389Z" fill="#7918D9"/>
<path d="M95.9334 50.1739C95.4304 49.6289 94.8854 48.1826 94.2985 45.835C93.7116 43.4874 93.1666 40.8464 92.6636 37.9118C92.3282 35.5223 91.8461 33.1538 91.2173 30.8062C90.7142 28.7101 90.2321 27.6621 89.771 27.6621H89.5823C88.6601 27.6621 88.1989 27.9555 88.1989 28.5424C88.1989 31.5607 88.3666 36.1511 88.702 42.3136C88.8697 46.0865 89.0583 48.2874 89.2679 48.9162L88.7649 49.9852H87.8845L87.3815 49.4822C86.7107 30.1145 86.3754 16.9092 86.3754 9.86639C86.3754 9.40525 86.3963 9.02796 86.4382 8.73451C86.5221 8.44106 86.6688 8.16857 86.8784 7.91704C87.0461 7.62359 87.3395 7.47686 87.7588 7.47686C89.8968 7.47686 91.6155 8.00088 92.9151 9.04892C94.2147 10.097 94.8644 11.6061 94.8644 13.5764V18.1668C94.8644 18.9633 94.592 20.0323 94.047 21.3738C93.5439 22.7153 92.978 23.952 92.3492 25.0839L91.5317 26.6559C91.9928 28.7939 92.8941 32.6507 94.2356 38.2263C95.619 43.7599 96.3736 46.6944 96.4994 47.0298C96.5413 47.0717 96.5832 47.1765 96.6251 47.3442C96.709 47.5119 96.8557 47.7634 97.0653 48.0988C97.3588 48.6857 97.5055 49.1887 97.5055 49.6079C97.5055 50.1948 97.2749 50.4883 96.8138 50.4883L95.9334 50.1739ZM88.5133 26.09C89.3099 26.09 90.0225 25.6917 90.6513 24.8952C91.2802 24.0987 91.7832 23.0717 92.1605 21.814C92.8313 19.2568 93.1666 17.2236 93.1666 15.7144C93.1666 14.7502 93.1037 13.9537 92.978 13.3249C92.8941 12.6961 92.7264 12.0253 92.4749 11.3127C91.9719 9.84543 90.7771 9.1118 88.8906 9.1118C88.681 9.1118 88.5133 9.30045 88.3876 9.67774C88.2618 10.0131 88.1989 10.3694 88.1989 10.7467C88.1989 13.5555 88.2409 16.0917 88.3247 18.3555C88.3666 20.6192 88.3876 23.1555 88.3876 25.9642L88.5133 26.09Z" fill="#7918D9"/>
<path d="M111.091 50.6141C106.186 50.6141 103.733 42.9005 103.733 27.4734V25.2725C103.733 13.5764 105.242 7.72839 108.261 7.72839C108.47 7.72839 108.764 7.79128 109.141 7.91704C110.483 8.37818 111.803 8.67163 113.103 8.79739C113.899 8.96508 114.696 9.78255 115.492 11.2498C116.373 12.759 117.022 14.7502 117.442 17.2236C117.903 19.697 118.133 22.2332 118.133 24.8324L118.008 25.1468C118.008 26.5302 118.029 27.7669 118.07 28.8568L118.133 32.6297C118.133 34.7677 118.049 36.6961 117.882 38.4149C117.63 41.014 117.211 43.2568 116.624 45.1433C116.247 46.2752 115.807 47.2184 115.304 47.973C114.842 48.7276 114.256 49.3564 113.543 49.8595C112.872 50.3625 112.055 50.6141 111.091 50.6141ZM110.839 48.7905C112.474 48.7905 113.69 47.6376 114.486 45.3319C115.283 42.9843 115.765 40.5948 115.932 38.1634C116.1 35.6481 116.184 33.6359 116.184 32.1267C116.184 30.4498 116.058 27.9765 115.807 24.7066C115.597 21.0594 115.492 18.5861 115.492 17.2865L115.241 16.7834L115.366 16.469C115.366 14.6245 114.842 13.0315 113.794 11.69C112.788 10.3485 111.552 9.67774 110.084 9.67774C108.156 9.67774 107.003 10.6 106.626 12.4446C106.542 13.0734 106.458 13.9747 106.374 15.1485C106.374 18.2507 106.249 20.3677 105.997 21.4996C105.997 22.1284 105.934 23.1136 105.808 24.4551L105.683 27.4105C105.683 28.3328 105.704 29.1503 105.746 29.8629L105.808 32.3782C105.808 34.3485 105.976 36.6123 106.311 39.1695C106.563 41.056 106.856 42.649 107.192 43.9485C107.527 45.2481 108.009 46.359 108.638 47.2813C109.267 48.2874 110.001 48.7905 110.839 48.7905Z" fill="#7918D9"/>
<path d="M15.5258 58.097C15.3581 58.097 15.0227 57.9713 14.5197 57.7197C14.0585 57.4263 13.7651 57.2796 13.6393 57.2796C12.8847 56.9442 12.2978 56.3363 11.8786 55.456C11.4594 54.5756 11.124 53.297 10.8725 51.6202C10.621 49.9852 10.4114 48.9791 10.2437 48.6018C9.06988 48.6018 8.00088 48.4132 7.03669 48.0359C6.0725 47.6167 5.25503 47.0507 4.58429 46.3381C3.45241 45.1643 2.55109 43.3616 1.88035 40.9302C1.62882 40.0918 1.44018 39.0647 1.31441 37.849C1.18865 36.6332 1.12576 35.5642 1.12576 34.642C1.08384 34.097 1.06288 33.1538 1.06288 31.8123V28.9826C1.02096 28.1022 1 27.0751 1 25.9014C1 23.3861 1.06288 20.5354 1.18865 17.3494C1.31441 14.5826 1.5869 11.8996 2.00612 9.30045C2.42533 6.869 3.07511 4.8987 3.95546 3.38952C4.83581 1.79651 6.03058 1 7.53975 1C9.007 1 10.4533 1.60786 11.8786 2.82358C13.3459 3.99738 14.1843 5.29695 14.3939 6.72228C15.5677 13.4297 16.1546 21.5834 16.1546 31.1835C16.1546 38.5197 14.855 44.0533 12.2559 47.7844C12.2559 48.0359 12.3607 48.4341 12.5703 48.9791L12.8847 49.8595L13.0734 51.5573C13.1991 52.6892 13.3039 53.4857 13.3878 53.9468C13.5136 54.4079 13.7441 54.8691 14.0795 55.3302C14.4568 55.8333 14.9808 56.0848 15.6516 56.0848H15.9031C17.2446 56.0848 17.9153 56.3573 17.9153 56.9023C17.9153 57.6988 17.1188 58.097 15.5258 58.097ZM9.55198 46.9669C11.1031 46.9669 12.214 44.9966 12.8847 41.056C13.5974 36.9896 13.9537 30.7014 13.9537 22.1913V20.5564L13.8909 16.5948L13.828 14.897C13.786 13.8909 13.6812 12.9267 13.5136 12.0044C13.3459 11.0402 13.1782 10.076 13.0105 9.1118C12.717 7.51879 12.0673 6.00962 11.0612 4.58428C10.2227 3.36856 9.007 2.7607 7.41398 2.7607C6.74324 2.7607 6.15634 3.22184 5.65328 4.14411C4.81485 5.61136 4.12315 8.54586 3.57817 12.9476C3.20088 15.8821 2.97031 19.4454 2.88647 23.6376C2.84454 24.5599 2.82358 25.8594 2.82358 27.5363V31.3092C2.82358 33.6987 3.07511 36.1092 3.57817 38.5407C3.87162 40.2175 4.24891 41.6429 4.71005 42.8167C5.21311 43.9485 5.86289 44.9127 6.6594 45.7092C7.49783 46.5477 8.46202 46.9669 9.55198 46.9669Z" stroke="#7918D9" stroke-width="2" mask="url(#path-1-outside-1_9_425)"/>
<path d="M31.5067 50.3625C30.836 50.3625 30.1023 50.132 29.3058 49.6708C28.5512 49.2516 27.9224 48.7486 27.4194 48.1616C26.8325 47.4071 26.3713 45.29 26.036 41.8105C25.7006 38.3311 25.491 34.3485 25.4071 29.8629C25.4071 28.8568 25.3862 28.1022 25.3443 27.5992C25.2604 17.0769 25.0927 10.8515 24.8412 8.92316L25.2185 8.0428C26.1827 8.16857 26.6648 9.32141 26.6648 11.5013L26.8534 28.1651C26.8534 29.3389 26.9582 31.5607 27.1678 34.8306C27.4194 37.7651 27.5451 39.987 27.5451 41.4961C27.5451 46.2752 29.1172 48.6647 32.2613 48.6647C34.1897 48.6647 35.4264 44.263 35.9713 35.4594L36.0342 34.2018C36.3277 22.6734 36.4744 14.1424 36.4744 8.60875L36.4115 8.0428C36.3696 7.87512 36.3486 7.68647 36.3486 7.47686C36.3486 7.01573 36.705 6.78516 37.4176 6.78516C37.9207 6.78516 38.2351 6.91093 38.3609 7.16245C38.4447 7.58167 38.4866 8.31529 38.4866 9.36333C38.4866 12.5494 38.3609 14.6874 38.1093 15.7773L38.1722 16.1546C38.1722 16.6996 38.1093 17.538 37.9836 18.6699L37.8578 21.1852V21.814C37.8997 21.9817 37.9207 22.1913 37.9207 22.4428C37.8368 23.4489 37.7949 24.4131 37.7949 25.3354C37.753 25.6289 37.732 26.09 37.732 26.7188C37.6482 30.7014 37.5644 34.1599 37.4805 37.0944C37.3548 40.7416 36.8517 43.8228 35.9713 46.3381C35.0491 49.021 33.5609 50.3625 31.5067 50.3625Z" stroke="#7918D9" stroke-width="2" mask="url(#path-1-outside-1_9_425)"/>
<path d="M60.32 49.9852C59.6912 49.9852 59.2929 49.9014 59.1253 49.7337C58.9576 49.6079 58.8318 49.2306 58.748 48.6018C58.3707 45.5416 58.1401 43.6341 58.0563 42.8795L57.7418 40.3643C56.8196 40.1546 55.7715 40.0498 54.5977 40.0498L52.334 39.9241C51.3279 39.7983 50.5942 39.7354 50.1331 39.7354C49.8816 39.7354 49.7348 39.8402 49.6929 40.0498C49.6929 40.1756 49.672 40.2385 49.63 40.2385L49.5043 41.4961C49.4624 42.2507 49.2318 43.7599 48.8126 46.0237C48.603 47.1555 48.3514 48.0359 48.058 48.6647C47.7226 49.3774 47.4082 49.7337 47.1148 49.7337C46.8632 49.7337 46.5907 49.6289 46.2973 49.4193C46.0038 49.1678 45.8571 48.9162 45.8571 48.6647L45.9829 48.2874C46.7375 45.311 47.3663 42.3555 47.8693 39.421L48.6239 35.5223L49.3785 30.7433C49.3785 30.7433 49.6091 29.3599 50.0702 26.5931C50.2798 25.4612 50.6571 23.6376 51.2021 21.1223C51.789 18.2716 52.1453 16.3223 52.2711 15.2743C52.313 15.1485 52.3969 14.3729 52.5226 12.9476C52.6903 11.3546 52.837 10.1808 52.9628 9.42621C53.0886 8.33626 53.2143 7.70743 53.3401 7.53975H53.7803C53.906 7.58167 54.0528 7.60263 54.2204 7.60263C54.7235 7.60263 55.1008 7.47687 55.3523 7.22534C55.6458 7.22534 55.8973 7.33014 56.1069 7.53975C56.3584 7.70743 56.4842 7.91704 56.4842 8.16857C56.4842 10.1808 56.6309 12.4865 56.9244 15.0856C57.0921 16.4271 57.2178 17.538 57.3017 18.4184C57.7628 23.8262 58.9366 33.9712 60.8231 48.8534V49.042C60.8231 49.4612 60.6554 49.7756 60.32 49.9852ZM57.4274 38.6664C57.0082 32.6297 56.2117 23.7214 55.0379 11.9415L51.6423 28.731C50.6781 33.552 50.196 36.5913 50.196 37.849C50.196 38.0586 50.9925 38.2472 52.5855 38.4149C54.1785 38.5826 55.5829 38.6664 56.7986 38.6664H57.4274Z" stroke="#7918D9" stroke-width="2" mask="url(#path-1-outside-1_9_425)"/>
<path d="M71.7945 48.5389L71.7317 46.2123C71.6897 45.5416 71.6688 44.787 71.6688 43.9485C71.6688 43.5293 71.6897 43.173 71.7317 42.8795L71.7945 41.7477C71.7945 41.3284 71.7107 40.8254 71.543 40.2385C71.543 37.4298 71.3334 32.2105 70.9142 24.5808C70.495 17.2026 70.2644 12.193 70.2225 9.55198C67.6234 9.55198 65.8836 9.4891 65.0033 9.36333C64.1648 9.15373 63.7456 8.81835 63.7456 8.35722C63.9552 7.89608 64.3535 7.66551 64.9404 7.66551C66.198 7.66551 68.0216 7.74936 70.4111 7.91704C72.591 8.12665 74.4146 8.23145 75.8819 8.23145H77.2024L78.5229 8.16857C79.2775 8.16857 79.6548 8.44106 79.6548 8.98604C79.6548 9.23757 79.5081 9.44718 79.2146 9.61486C78.9631 9.74063 78.6487 9.80351 78.2714 9.80351C77.433 9.80351 76.5526 9.76159 75.6304 9.67774L72.9264 9.55198C72.7587 9.55198 72.6749 9.61486 72.6749 9.74062C72.633 9.86639 72.612 10.2646 72.612 10.9354C72.612 15.0018 72.8635 21.1642 73.3666 29.4228C73.8277 37.9747 74.0583 44.1162 74.0583 47.8472C74.0583 48.1407 73.8697 48.4132 73.4924 48.6647C73.157 48.9162 72.8216 49.042 72.4862 49.042L71.7945 48.5389Z" stroke="#7918D9" stroke-width="2" mask="url(#path-1-outside-1_9_425)"/>
<path d="M95.9334 50.1739C95.4304 49.6289 94.8854 48.1826 94.2985 45.835C93.7116 43.4874 93.1666 40.8464 92.6636 37.9118C92.3282 35.5223 91.8461 33.1538 91.2173 30.8062C90.7142 28.7101 90.2321 27.6621 89.771 27.6621H89.5823C88.6601 27.6621 88.1989 27.9555 88.1989 28.5424C88.1989 31.5607 88.3666 36.1511 88.702 42.3136C88.8697 46.0865 89.0583 48.2874 89.2679 48.9162L88.7649 49.9852H87.8845L87.3815 49.4822C86.7107 30.1145 86.3754 16.9092 86.3754 9.86639C86.3754 9.40525 86.3963 9.02796 86.4382 8.73451C86.5221 8.44106 86.6688 8.16857 86.8784 7.91704C87.0461 7.62359 87.3395 7.47686 87.7588 7.47686C89.8968 7.47686 91.6155 8.00088 92.9151 9.04892C94.2147 10.097 94.8644 11.6061 94.8644 13.5764V18.1668C94.8644 18.9633 94.592 20.0323 94.047 21.3738C93.5439 22.7153 92.978 23.952 92.3492 25.0839L91.5317 26.6559C91.9928 28.7939 92.8941 32.6507 94.2356 38.2263C95.619 43.7599 96.3736 46.6944 96.4994 47.0298C96.5413 47.0717 96.5832 47.1765 96.6251 47.3442C96.709 47.5119 96.8557 47.7634 97.0653 48.0988C97.3588 48.6857 97.5055 49.1887 97.5055 49.6079C97.5055 50.1948 97.2749 50.4883 96.8138 50.4883L95.9334 50.1739ZM88.5133 26.09C89.3099 26.09 90.0225 25.6917 90.6513 24.8952C91.2802 24.0987 91.7832 23.0717 92.1605 21.814C92.8313 19.2568 93.1666 17.2236 93.1666 15.7144C93.1666 14.7502 93.1037 13.9537 92.978 13.3249C92.8941 12.6961 92.7264 12.0253 92.4749 11.3127C91.9719 9.84543 90.7771 9.1118 88.8906 9.1118C88.681 9.1118 88.5133 9.30045 88.3876 9.67774C88.2618 10.0131 88.1989 10.3694 88.1989 10.7467C88.1989 13.5555 88.2409 16.0917 88.3247 18.3555C88.3666 20.6192 88.3876 23.1555 88.3876 25.9642L88.5133 26.09Z" stroke="#7918D9" stroke-width="2" mask="url(#path-1-outside-1_9_425)"/>
<path d="M111.091 50.6141C106.186 50.6141 103.733 42.9005 103.733 27.4734V25.2725C103.733 13.5764 105.242 7.72839 108.261 7.72839C108.47 7.72839 108.764 7.79128 109.141 7.91704C110.483 8.37818 111.803 8.67163 113.103 8.79739C113.899 8.96508 114.696 9.78255 115.492 11.2498C116.373 12.759 117.022 14.7502 117.442 17.2236C117.903 19.697 118.133 22.2332 118.133 24.8324L118.008 25.1468C118.008 26.5302 118.029 27.7669 118.07 28.8568L118.133 32.6297C118.133 34.7677 118.049 36.6961 117.882 38.4149C117.63 41.014 117.211 43.2568 116.624 45.1433C116.247 46.2752 115.807 47.2184 115.304 47.973C114.842 48.7276 114.256 49.3564 113.543 49.8595C112.872 50.3625 112.055 50.6141 111.091 50.6141ZM110.839 48.7905C112.474 48.7905 113.69 47.6376 114.486 45.3319C115.283 42.9843 115.765 40.5948 115.932 38.1634C116.1 35.6481 116.184 33.6359 116.184 32.1267C116.184 30.4498 116.058 27.9765 115.807 24.7066C115.597 21.0594 115.492 18.5861 115.492 17.2865L115.241 16.7834L115.366 16.469C115.366 14.6245 114.842 13.0315 113.794 11.69C112.788 10.3485 111.552 9.67774 110.084 9.67774C108.156 9.67774 107.003 10.6 106.626 12.4446C106.542 13.0734 106.458 13.9747 106.374 15.1485C106.374 18.2507 106.249 20.3677 105.997 21.4996C105.997 22.1284 105.934 23.1136 105.808 24.4551L105.683 27.4105C105.683 28.3328 105.704 29.1503 105.746 29.8629L105.808 32.3782C105.808 34.3485 105.976 36.6123 106.311 39.1695C106.563 41.056 106.856 42.649 107.192 43.9485C107.527 45.2481 108.009 46.359 108.638 47.2813C109.267 48.2874 110.001 48.7905 110.839 48.7905Z" stroke="#7918D9" stroke-width="2" mask="url(#path-1-outside-1_9_425)"/>
<path d="M17.4315 73.1102C17.0239 73.1102 16.6571 73.0327 16.3311 72.8779C16.0131 72.7148 15.7605 72.4947 15.573 72.2176C15.3855 71.9404 15.2917 71.6307 15.2917 71.2883C15.2917 70.8563 15.4018 70.514 15.6219 70.2613C15.8501 70.0086 16.221 69.8292 16.7345 69.7233C17.2562 69.6091 17.9654 69.5521 18.8621 69.5521H19.2533V69.173C19.2533 68.6677 19.1474 68.3049 18.9354 68.0848C18.7316 67.8566 18.4015 67.7425 17.945 67.7425C17.6597 67.7425 17.3704 67.7792 17.0769 67.8525C16.7916 67.9259 16.4941 68.0441 16.1843 68.2071C16.0458 68.2805 15.9276 68.2968 15.8297 68.256C15.7401 68.2071 15.6749 68.1337 15.6341 68.0359C15.6015 67.93 15.6015 67.824 15.6341 67.718C15.6749 67.6039 15.7564 67.5183 15.8786 67.4613C16.2292 67.2819 16.5797 67.1515 16.9302 67.07C17.2888 66.9885 17.6271 66.9477 17.945 66.9477C18.7113 66.9477 19.2778 67.1352 19.6446 67.5102C20.0196 67.8851 20.207 68.468 20.207 69.2586V72.5722C20.207 72.9145 20.0562 73.0857 19.7546 73.0857C19.4367 73.0857 19.2778 72.9145 19.2778 72.5722V71.9731C19.1229 72.3236 18.8824 72.6007 18.5564 72.8045C18.2385 73.0083 17.8635 73.1102 17.4315 73.1102ZM17.5904 72.3643C18.0795 72.3643 18.4789 72.1972 18.7887 71.863C19.0984 71.5207 19.2533 71.0886 19.2533 70.5669V70.2001H18.8743C18.214 70.2001 17.6923 70.2327 17.3092 70.2979C16.9343 70.355 16.6693 70.461 16.5145 70.6158C16.3677 70.7626 16.2944 70.9664 16.2944 71.2272C16.2944 71.5614 16.4085 71.8345 16.6367 72.0464C16.8731 72.2584 17.191 72.3643 17.5904 72.3643Z" fill="#715E26"/>
<path d="M26.3851 73.1102C25.8552 73.1102 25.3906 72.9838 24.9912 72.7311C24.5999 72.4784 24.2942 72.1239 24.0741 71.6674C23.8622 71.2027 23.7562 70.6566 23.7562 70.0289C23.7562 69.3931 23.8622 68.847 24.0741 68.3905C24.2942 67.9259 24.5999 67.5713 24.9912 67.3268C25.3906 67.0741 25.8552 66.9477 26.3851 66.9477C26.8497 66.9477 27.2573 67.0496 27.6078 67.2534C27.9664 67.4572 28.2314 67.7384 28.4025 68.0971V64.7958C28.4025 64.4615 28.5696 64.2944 28.9038 64.2944C29.2299 64.2944 29.3929 64.4615 29.3929 64.7958V72.5722C29.3929 72.9145 29.2299 73.0857 28.9038 73.0857C28.5778 73.0857 28.4148 72.9145 28.4148 72.5722V71.9364C28.2354 72.3032 27.9664 72.5926 27.6078 72.8045C27.2573 73.0083 26.8497 73.1102 26.3851 73.1102ZM26.5929 72.3154C27.1472 72.3154 27.5915 72.1198 27.9257 71.7285C28.2599 71.3291 28.427 70.7626 28.427 70.0289C28.427 69.2872 28.2599 68.7206 27.9257 68.3294C27.5915 67.9381 27.1472 67.7425 26.5929 67.7425C26.0305 67.7425 25.5822 67.9381 25.2479 68.3294C24.9219 68.7206 24.7589 69.2872 24.7589 70.0289C24.7589 70.7626 24.9219 71.3291 25.2479 71.7285C25.5822 72.1198 26.0305 72.3154 26.5929 72.3154Z" fill="#715E26"/>
<path d="M35.8 73.1102C35.2213 73.1102 34.72 72.9838 34.2961 72.7311C33.8722 72.4784 33.5421 72.1239 33.3057 71.6674C33.0775 71.2027 32.9633 70.6566 32.9633 70.0289C32.9633 69.4013 33.0775 68.8592 33.3057 68.4027C33.5421 67.9381 33.8722 67.5795 34.2961 67.3268C34.72 67.0741 35.2213 66.9477 35.8 66.9477C36.3706 66.9477 36.8679 67.0741 37.2917 67.3268C37.7238 67.5795 38.0539 67.9381 38.2821 68.4027C38.5185 68.8592 38.6367 69.4013 38.6367 70.0289C38.6367 70.6566 38.5185 71.2027 38.2821 71.6674C38.0539 72.1239 37.7238 72.4784 37.2917 72.7311C36.8679 72.9838 36.3706 73.1102 35.8 73.1102ZM35.8 72.3154C36.3543 72.3154 36.7986 72.1198 37.1328 71.7285C37.467 71.3291 37.6341 70.7626 37.6341 70.0289C37.6341 69.2872 37.467 68.7206 37.1328 68.3294C36.7986 67.9381 36.3543 67.7425 35.8 67.7425C35.2376 67.7425 34.7892 67.9381 34.455 68.3294C34.129 68.7206 33.966 69.2872 33.966 70.0289C33.966 70.7626 34.129 71.3291 34.455 71.7285C34.7892 72.1198 35.2376 72.3154 35.8 72.3154Z" fill="#715E26"/>
<path d="M44.7217 73.1102C44.1266 73.1102 43.6131 72.9838 43.1811 72.7311C42.7491 72.4703 42.4148 72.1076 42.1785 71.6429C41.9502 71.1701 41.8361 70.6199 41.8361 69.9923C41.8361 69.0467 42.0929 68.3049 42.6064 67.7669C43.1199 67.2208 43.825 66.9477 44.7217 66.9477C45.0151 66.9477 45.3208 66.9966 45.6387 67.0944C45.9566 67.1841 46.246 67.3349 46.5068 67.5468C46.6454 67.6447 46.7025 67.7669 46.678 67.9137C46.6617 68.0604 46.5924 68.1704 46.4702 68.2438C46.356 68.3172 46.2215 68.3009 46.0667 68.1949C45.8466 68.0319 45.6265 67.9177 45.4064 67.8525C45.1945 67.7873 44.9866 67.7547 44.7828 67.7547C44.1633 67.7547 43.6865 67.9503 43.3523 68.3416C43.0181 68.7247 42.8509 69.279 42.8509 70.0045C42.8509 70.7137 43.0181 71.2761 43.3523 71.6918C43.6865 72.0994 44.1633 72.3032 44.7828 72.3032C44.9866 72.3032 45.1945 72.2706 45.4064 72.2054C45.6265 72.1402 45.8466 72.026 46.0667 71.863C46.2215 71.757 46.356 71.7448 46.4702 71.8263C46.5843 71.8997 46.6454 72.0097 46.6536 72.1565C46.6699 72.3032 46.6128 72.4214 46.4824 72.511C46.2215 72.723 45.9363 72.8779 45.6265 72.9757C45.3167 73.0653 45.0151 73.1102 44.7217 73.1102ZM44.7095 75.3477C44.5627 75.3477 44.4079 75.3355 44.2448 75.3111C44.09 75.2947 43.9473 75.2581 43.8169 75.201C43.6946 75.1521 43.6253 75.0747 43.609 74.9687C43.6009 74.8627 43.6294 74.7731 43.6946 74.6997C43.768 74.6263 43.8699 74.6141 44.0003 74.663C44.1796 74.7364 44.4079 74.7731 44.685 74.7731C44.8969 74.7731 45.0681 74.7323 45.1985 74.6508C45.329 74.5774 45.3942 74.4674 45.3942 74.3207C45.3942 74.0924 45.2393 73.9783 44.9296 73.9783C44.8643 73.9783 44.7991 73.9824 44.7339 73.9905C44.6769 73.9987 44.6076 74.0109 44.5261 74.0272C44.3956 74.068 44.2978 74.068 44.2326 74.0272C44.1755 73.9783 44.1592 73.8764 44.1837 73.7215L44.3304 72.7556H44.954L44.8195 73.5259C44.901 73.5177 44.9785 73.5137 45.0518 73.5137C45.3534 73.5137 45.598 73.587 45.7854 73.7338C45.9811 73.8805 46.0789 74.0843 46.0789 74.3451C46.0789 74.6467 45.9526 74.8872 45.6999 75.0665C45.4472 75.254 45.117 75.3477 44.7095 75.3477Z" fill="#715E26"/>
<path d="M51.8121 73.1102C51.4045 73.1102 51.0377 73.0327 50.7116 72.8779C50.3937 72.7148 50.141 72.4947 49.9535 72.2176C49.7661 71.9404 49.6723 71.6307 49.6723 71.2883C49.6723 70.8563 49.7824 70.514 50.0025 70.2613C50.2307 70.0086 50.6016 69.8292 51.1151 69.7233C51.6368 69.6091 52.346 69.5521 53.2426 69.5521H53.6339V69.173C53.6339 68.6677 53.5279 68.3049 53.316 68.0848C53.1122 67.8566 52.7821 67.7425 52.3256 67.7425C52.0403 67.7425 51.7509 67.7792 51.4575 67.8525C51.1722 67.9259 50.8747 68.0441 50.5649 68.2071C50.4263 68.2805 50.3081 68.2968 50.2103 68.256C50.1207 68.2071 50.0554 68.1337 50.0147 68.0359C49.9821 67.93 49.9821 67.824 50.0147 67.718C50.0554 67.6039 50.137 67.5183 50.2592 67.4613C50.6097 67.2819 50.9602 67.1515 51.3108 67.07C51.6694 66.9885 52.0077 66.9477 52.3256 66.9477C53.0918 66.9477 53.6584 67.1352 54.0252 67.5102C54.4001 67.8851 54.5876 68.468 54.5876 69.2586V72.5722C54.5876 72.9145 54.4368 73.0857 54.1352 73.0857C53.8173 73.0857 53.6584 72.9145 53.6584 72.5722V71.9731C53.5035 72.3236 53.263 72.6007 52.937 72.8045C52.6191 73.0083 52.2441 73.1102 51.8121 73.1102ZM51.971 72.3643C52.4601 72.3643 52.8595 72.1972 53.1693 71.863C53.479 71.5207 53.6339 71.0886 53.6339 70.5669V70.2001H53.2549C52.5946 70.2001 52.0729 70.2327 51.6898 70.2979C51.3148 70.355 51.0499 70.461 50.895 70.6158C50.7483 70.7626 50.6749 70.9664 50.6749 71.2272C50.6749 71.5614 50.7891 71.8345 51.0173 72.0464C51.2537 72.2584 51.5716 72.3643 51.971 72.3643ZM50.4182 65.8228C50.3367 65.8228 50.2674 65.7943 50.2103 65.7372C50.1614 65.6802 50.1492 65.5946 50.1736 65.4805C50.2388 65.0974 50.3733 64.7754 50.5771 64.5145C50.7891 64.2537 51.0784 64.1233 51.4453 64.1233C51.6409 64.1233 51.8161 64.1722 51.971 64.27C52.1259 64.3597 52.2686 64.4656 52.399 64.5879C52.5375 64.7102 52.672 64.8202 52.8025 64.918C52.9329 65.0077 53.0715 65.0525 53.2182 65.0525C53.4057 65.0525 53.5605 64.9832 53.6828 64.8447C53.8051 64.7061 53.8907 64.5145 53.9396 64.27C53.9722 64.1151 54.0782 64.0417 54.2575 64.0499C54.339 64.0499 54.4042 64.0784 54.4531 64.1355C54.5102 64.1925 54.5265 64.2781 54.502 64.3923C54.4368 64.7672 54.2982 65.0892 54.0863 65.3582C53.8825 65.619 53.5972 65.7495 53.2304 65.7495C53.0348 65.7495 52.8595 65.7046 52.7046 65.615C52.5498 65.5171 52.403 65.4071 52.2645 65.2848C52.134 65.1626 52.0036 65.0566 51.8732 64.9669C51.7428 64.8691 51.6042 64.8202 51.4575 64.8202C51.27 64.8202 51.1151 64.8895 50.9929 65.0281C50.8706 65.1666 50.785 65.3582 50.7361 65.6027C50.7035 65.7576 50.5975 65.831 50.4182 65.8228Z" fill="#715E26"/>
<path d="M60.9735 73.1102C60.3948 73.1102 59.8934 72.9838 59.4696 72.7311C59.0457 72.4784 58.7156 72.1239 58.4792 71.6674C58.2509 71.2027 58.1368 70.6566 58.1368 70.0289C58.1368 69.4013 58.2509 68.8592 58.4792 68.4027C58.7156 67.9381 59.0457 67.5795 59.4696 67.3268C59.8934 67.0741 60.3948 66.9477 60.9735 66.9477C61.5441 66.9477 62.0413 67.0741 62.4652 67.3268C62.8972 67.5795 63.2274 67.9381 63.4556 68.4027C63.692 68.8592 63.8102 69.4013 63.8102 70.0289C63.8102 70.6566 63.692 71.2027 63.4556 71.6674C63.2274 72.1239 62.8972 72.4784 62.4652 72.7311C62.0413 72.9838 61.5441 73.1102 60.9735 73.1102ZM60.9735 72.3154C61.5278 72.3154 61.972 72.1198 62.3063 71.7285C62.6405 71.3291 62.8076 70.7626 62.8076 70.0289C62.8076 69.2872 62.6405 68.7206 62.3063 68.3294C61.972 67.9381 61.5278 67.7425 60.9735 67.7425C60.4111 67.7425 59.9627 67.9381 59.6285 68.3294C59.3025 68.7206 59.1394 69.2872 59.1394 70.0289C59.1394 70.7626 59.3025 71.3291 59.6285 71.7285C59.9627 72.1198 60.4111 72.3154 60.9735 72.3154Z" fill="#715E26"/>
<path d="M74.478 73.1102C74.0705 73.1102 73.7037 73.0327 73.3776 72.8779C73.0597 72.7148 72.807 72.4947 72.6195 72.2176C72.432 71.9404 72.3383 71.6307 72.3383 71.2883C72.3383 70.8563 72.4483 70.514 72.6684 70.2613C72.8967 70.0086 73.2676 69.8292 73.7811 69.7233C74.3028 69.6091 75.012 69.5521 75.9086 69.5521H76.2999V69.173C76.2999 68.6677 76.1939 68.3049 75.982 68.0848C75.7782 67.8566 75.4481 67.7425 74.9916 67.7425C74.7063 67.7425 74.4169 67.7792 74.1235 67.8525C73.8382 67.9259 73.5406 68.0441 73.2309 68.2071C73.0923 68.2805 72.9741 68.2968 72.8763 68.256C72.7866 68.2071 72.7214 68.1337 72.6807 68.0359C72.6481 67.93 72.6481 67.824 72.6807 67.718C72.7214 67.6039 72.8029 67.5183 72.9252 67.4613C73.2757 67.2819 73.6262 67.1515 73.9767 67.07C74.3354 66.9885 74.6737 66.9477 74.9916 66.9477C75.7578 66.9477 76.3243 67.1352 76.6912 67.5102C77.0661 67.8851 77.2536 68.468 77.2536 69.2586V72.5722C77.2536 72.9145 77.1028 73.0857 76.8012 73.0857C76.4833 73.0857 76.3243 72.9145 76.3243 72.5722V71.9731C76.1695 72.3236 75.929 72.6007 75.6029 72.8045C75.285 73.0083 74.9101 73.1102 74.478 73.1102ZM74.637 72.3643C75.1261 72.3643 75.5255 72.1972 75.8353 71.863C76.145 71.5207 76.2999 71.0886 76.2999 70.5669V70.2001H75.9208C75.2606 70.2001 74.7389 70.2327 74.3558 70.2979C73.9808 70.355 73.7159 70.461 73.561 70.6158C73.4143 70.7626 73.3409 70.9664 73.3409 71.2272C73.3409 71.5614 73.455 71.8345 73.6833 72.0464C73.9197 72.2584 74.2376 72.3643 74.637 72.3643Z" fill="#715E26"/>
<path d="M81.6587 73.0857C81.3326 73.0857 81.1696 72.9145 81.1696 72.5722V67.4735C81.1696 67.1393 81.3286 66.9722 81.6465 66.9722C81.9725 66.9722 82.1356 67.1393 82.1356 67.4735V68.0726C82.3312 67.6976 82.6083 67.4164 82.967 67.2289C83.3256 67.0415 83.7291 66.9477 84.1775 66.9477C85.5877 66.9477 86.2928 67.7303 86.2928 69.2953V72.5722C86.2928 72.9145 86.1297 73.0857 85.8037 73.0857C85.4695 73.0857 85.3024 72.9145 85.3024 72.5722V69.3565C85.3024 68.8022 85.1923 68.3987 84.9722 68.146C84.7603 67.8851 84.4179 67.7547 83.9452 67.7547C83.399 67.7547 82.9629 67.9259 82.6369 68.2682C82.319 68.6025 82.16 69.0508 82.16 69.6132V72.5722C82.16 72.9145 81.9929 73.0857 81.6587 73.0857Z" fill="#715E26"/>
<path d="M90.6867 65.6272C90.2547 65.6272 90.0386 65.4234 90.0386 65.0158C90.0386 64.6164 90.2547 64.4167 90.6867 64.4167C91.1187 64.4167 91.3347 64.6164 91.3347 65.0158C91.3347 65.4234 91.1187 65.6272 90.6867 65.6272ZM90.6867 73.0613C90.3606 73.0613 90.1976 72.8819 90.1976 72.5233V67.5224C90.1976 67.1719 90.3606 66.9966 90.6867 66.9966C91.0209 66.9966 91.188 67.1719 91.188 67.5224V72.5233C91.188 72.8819 91.0209 73.0613 90.6867 73.0613Z" fill="#715E26"/>
<path d="M95.6316 73.0857C95.3055 73.0857 95.1425 72.9145 95.1425 72.5722V67.4735C95.1425 67.1393 95.3015 66.9722 95.6194 66.9722C95.9454 66.9722 96.1084 67.1393 96.1084 67.4735V68.0604C96.2878 67.7017 96.5364 67.4287 96.8543 67.2412C97.1722 67.0455 97.5431 66.9477 97.967 66.9477C98.8962 66.9477 99.4913 67.3512 99.7521 68.1582C99.9314 67.7832 100.196 67.4898 100.547 67.2779C100.897 67.0578 101.301 66.9477 101.757 66.9477C103.078 66.9477 103.738 67.7303 103.738 69.2953V72.5722C103.738 72.9145 103.571 73.0857 103.237 73.0857C102.911 73.0857 102.748 72.9145 102.748 72.5722V69.3442C102.748 68.7981 102.65 68.3987 102.454 68.146C102.267 67.8851 101.953 67.7547 101.513 67.7547C101.032 67.7547 100.649 67.9259 100.363 68.2682C100.078 68.6106 99.9355 69.0671 99.9355 69.6377V72.5722C99.9355 72.9145 99.7684 73.0857 99.4342 73.0857C99.1082 73.0857 98.9451 72.9145 98.9451 72.5722V69.3442C98.9451 68.7981 98.8473 68.3987 98.6517 68.146C98.4642 67.8851 98.1504 67.7547 97.7102 67.7547C97.2211 67.7547 96.8339 67.9259 96.5486 68.2682C96.2715 68.6106 96.1329 69.0671 96.1329 69.6377V72.5722C96.1329 72.9145 95.9658 73.0857 95.6316 73.0857Z" fill="#715E26"/>
<path d="M109.539 73.1102C109.132 73.1102 108.765 73.0327 108.439 72.8779C108.121 72.7148 107.868 72.4947 107.681 72.2176C107.493 71.9404 107.399 71.6307 107.399 71.2883C107.399 70.8563 107.51 70.514 107.73 70.2613C107.958 70.0086 108.329 69.8292 108.842 69.7233C109.364 69.6091 110.073 69.5521 110.97 69.5521H111.361V69.173C111.361 68.6677 111.255 68.3049 111.043 68.0848C110.839 67.8566 110.509 67.7425 110.053 67.7425C109.767 67.7425 109.478 67.7792 109.185 67.8525C108.899 67.9259 108.602 68.0441 108.292 68.2071C108.153 68.2805 108.035 68.2968 107.937 68.256C107.848 68.2071 107.783 68.1337 107.742 68.0359C107.709 67.93 107.709 67.824 107.742 67.718C107.783 67.6039 107.864 67.5183 107.986 67.4613C108.337 67.2819 108.687 67.1515 109.038 67.07C109.397 66.9885 109.735 66.9477 110.053 66.9477C110.819 66.9477 111.386 67.1352 111.752 67.5102C112.127 67.8851 112.315 68.468 112.315 69.2586V72.5722C112.315 72.9145 112.164 73.0857 111.862 73.0857C111.544 73.0857 111.386 72.9145 111.386 72.5722V71.9731C111.231 72.3236 110.99 72.6007 110.664 72.8045C110.346 73.0083 109.971 73.1102 109.539 73.1102ZM109.698 72.3643C110.187 72.3643 110.587 72.1972 110.896 71.863C111.206 71.5207 111.361 71.0886 111.361 70.5669V70.2001H110.982C110.322 70.2001 109.8 70.2327 109.417 70.2979C109.042 70.355 108.777 70.461 108.622 70.6158C108.475 70.7626 108.402 70.9664 108.402 71.2272C108.402 71.5614 108.516 71.8345 108.744 72.0464C108.981 72.2584 109.299 72.3643 109.698 72.3643Z" fill="#715E26"/>
<path d="M118.04 73.1102C117.453 73.1102 117.005 72.9349 116.695 72.5844C116.386 72.2257 116.231 71.7081 116.231 71.0316V64.7958C116.231 64.4615 116.394 64.2944 116.72 64.2944C117.054 64.2944 117.221 64.4615 117.221 64.7958V70.9582C117.221 71.8304 117.568 72.2665 118.26 72.2665C118.334 72.2665 118.399 72.2624 118.456 72.2543C118.513 72.2461 118.57 72.2421 118.627 72.2421C118.717 72.2339 118.778 72.2543 118.811 72.3032C118.851 72.3521 118.872 72.4499 118.872 72.5966C118.872 72.8738 118.733 73.0327 118.456 73.0735C118.391 73.0898 118.322 73.0979 118.248 73.0979C118.175 73.1061 118.106 73.1102 118.04 73.1102Z" fill="#715E26"/>
<mask id="path-3-outside-2_9_425" maskUnits="userSpaceOnUse" x="134.624" y="20.028" width="84" height="51" fill="black">
<rect fill="white" x="134.624" y="20.028" width="84" height="51"/>
<path d="M137.196 69.4473C136.693 69.4473 136.441 68.7137 136.441 67.2464C136.441 65.1503 136.42 63.2848 136.378 61.6499L136.253 55.9905V50.897C136.211 49.3879 136.19 47.69 136.19 45.8036C136.19 40.1861 136.085 34.9878 135.875 30.2088L135.812 27.945C135.687 25.4717 135.624 23.4594 135.624 21.9083L135.812 21.6568C135.854 21.573 135.938 21.4682 136.064 21.3424C136.106 21.2166 136.211 21.1328 136.378 21.0909C136.462 21.0489 136.609 21.028 136.819 21.028C138.286 21.028 139.606 21.3634 140.78 22.0341C141.996 22.7048 142.981 23.6271 143.736 24.8009C145.203 27.1066 145.936 29.7267 145.936 32.6612C145.936 34.5477 145.622 36.476 144.993 38.4464C144.406 40.4167 143.505 42.1983 142.289 43.7913C141.032 45.5101 139.627 46.5162 138.076 46.8097L138.202 53.7896L138.328 57.1852C138.495 61.2097 138.579 64.6473 138.579 67.4979C138.579 68.1687 138.474 68.6717 138.265 69.0071C138.097 69.3006 137.741 69.4473 137.196 69.4473ZM138.076 44.483C138.453 44.4411 138.831 44.2734 139.208 43.98C139.292 43.9381 139.439 43.7704 139.648 43.4769C139.648 43.4769 139.795 43.3302 140.088 43.0368C142.813 40.3119 144.176 36.8953 144.176 32.787C144.176 30.4394 143.715 28.2594 142.792 26.2472C142.289 25.1992 141.556 24.3817 140.591 23.7948C139.627 23.166 138.495 22.8516 137.196 22.8516C137.196 25.2411 137.322 28.8254 137.573 33.6044C137.825 38.3835 137.95 41.9678 137.95 44.3573L138.076 44.483Z"/>
<path d="M164.052 69.6359C163.424 69.6359 163.025 69.5521 162.858 69.3844C162.69 69.2586 162.564 68.8813 162.48 68.2525C162.103 65.1922 161.873 63.2848 161.789 62.5302L161.474 60.0149C160.552 59.8053 159.504 59.7005 158.33 59.7005L156.066 59.5748C155.06 59.449 154.327 59.3861 153.866 59.3861C153.614 59.3861 153.467 59.4909 153.425 59.7005C153.425 59.8263 153.404 59.8892 153.362 59.8892L153.237 61.1468C153.195 61.9014 152.964 63.4106 152.545 65.6743C152.335 66.8062 152.084 67.6866 151.79 68.3154C151.455 69.0281 151.141 69.3844 150.847 69.3844C150.596 69.3844 150.323 69.2796 150.03 69.07C149.736 68.8185 149.59 68.5669 149.59 68.3154L149.715 67.9381C150.47 64.9617 151.099 62.0062 151.602 59.0717L152.356 55.173L153.111 50.394C153.111 50.394 153.341 49.0106 153.803 46.2437C154.012 45.1119 154.39 43.2883 154.935 40.773C155.521 37.9223 155.878 35.973 156.004 34.925C156.045 34.7992 156.129 34.0236 156.255 32.5983C156.423 31.0053 156.569 29.8315 156.695 29.0769C156.821 27.9869 156.947 27.3581 157.073 27.1904H157.513C157.638 27.2324 157.785 27.2533 157.953 27.2533C158.456 27.2533 158.833 27.1276 159.085 26.876C159.378 26.876 159.63 26.9808 159.839 27.1904C160.091 27.3581 160.217 27.5677 160.217 27.8193C160.217 29.8315 160.363 32.1372 160.657 34.7363C160.824 36.0778 160.95 37.1887 161.034 38.0691C161.495 43.4769 162.669 53.6219 164.555 68.504V68.6927C164.555 69.1119 164.388 69.4263 164.052 69.6359ZM161.16 58.3171C160.741 52.2804 159.944 43.3721 158.77 31.5922L155.375 48.3817C154.41 53.2027 153.928 56.242 153.928 57.4997C153.928 57.7093 154.725 57.8979 156.318 58.0656C157.911 58.2333 159.315 58.3171 160.531 58.3171H161.16Z"/>
<path d="M175.527 68.1896L175.464 65.863C175.422 65.1922 175.401 64.4377 175.401 63.5992C175.401 63.18 175.422 62.8237 175.464 62.5302L175.527 61.3984C175.527 60.9791 175.443 60.4761 175.275 59.8892C175.275 57.0804 175.066 51.8612 174.647 44.2315C174.227 36.8533 173.997 31.8437 173.955 29.2027C171.356 29.2027 169.616 29.1398 168.736 29.014C167.897 28.8044 167.478 28.469 167.478 28.0079C167.688 27.5468 168.086 27.3162 168.673 27.3162C169.93 27.3162 171.754 27.4 174.144 27.5677C176.323 27.7773 178.147 27.8821 179.614 27.8821H180.935L182.255 27.8193C183.01 27.8193 183.387 28.0918 183.387 28.6367C183.387 28.8883 183.241 29.0979 182.947 29.2656C182.696 29.3913 182.381 29.4542 182.004 29.4542C181.165 29.4542 180.285 29.4123 179.363 29.3284L176.659 29.2027C176.491 29.2027 176.407 29.2656 176.407 29.3913C176.365 29.5171 176.344 29.9153 176.344 30.5861C176.344 34.6525 176.596 40.8149 177.099 49.0734C177.56 57.6254 177.791 63.7669 177.791 67.4979C177.791 67.7914 177.602 68.0639 177.225 68.3154C176.889 68.5669 176.554 68.6927 176.219 68.6927L175.527 68.1896Z"/>
<path d="M202.433 69.6359C201.804 69.6359 201.406 69.5521 201.238 69.3844C201.07 69.2586 200.944 68.8813 200.861 68.2525C200.483 65.1922 200.253 63.2848 200.169 62.5302L199.854 60.0149C198.932 59.8053 197.884 59.7005 196.71 59.7005L194.447 59.5748C193.441 59.449 192.707 59.3861 192.246 59.3861C191.994 59.3861 191.848 59.4909 191.806 59.7005C191.806 59.8263 191.785 59.8892 191.743 59.8892L191.617 61.1468C191.575 61.9014 191.344 63.4106 190.925 65.6743C190.716 66.8062 190.464 67.6866 190.171 68.3154C189.835 69.0281 189.521 69.3844 189.227 69.3844C188.976 69.3844 188.703 69.2796 188.41 69.07C188.116 68.8185 187.97 68.5669 187.97 68.3154L188.096 67.9381C188.85 64.9617 189.479 62.0062 189.982 59.0717L190.737 55.173L191.491 50.394C191.491 50.394 191.722 49.0106 192.183 46.2437C192.392 45.1119 192.77 43.2883 193.315 40.773C193.902 37.9223 194.258 35.973 194.384 34.925C194.426 34.7992 194.51 34.0236 194.635 32.5983C194.803 31.0053 194.95 29.8315 195.075 29.0769C195.201 27.9869 195.327 27.3581 195.453 27.1904H195.893C196.019 27.2324 196.165 27.2533 196.333 27.2533C196.836 27.2533 197.213 27.1276 197.465 26.876C197.758 26.876 198.01 26.9808 198.22 27.1904C198.471 27.3581 198.597 27.5677 198.597 27.8193C198.597 29.8315 198.744 32.1372 199.037 34.7363C199.205 36.0778 199.33 37.1887 199.414 38.0691C199.875 43.4769 201.049 53.6219 202.936 68.504V68.6927C202.936 69.1119 202.768 69.4263 202.433 69.6359ZM199.54 58.3171C199.121 52.2804 198.324 43.3721 197.151 31.5922L193.755 48.3817C192.791 53.2027 192.309 56.242 192.309 57.4997C192.309 57.7093 193.105 57.8979 194.698 58.0656C196.291 58.2333 197.696 58.3171 198.911 58.3171H199.54Z"/>
<path d="M210.449 69.8246C209.988 69.7407 209.547 69.5521 209.128 69.2586C208.709 69.0071 208.478 68.6927 208.436 68.3154L208.751 67.8123C208.919 67.8123 209.296 67.8752 209.883 68.001C210.344 68.1687 210.721 68.2525 211.015 68.2525C211.937 68.2525 212.754 67.8962 213.467 67.1835C214.18 66.4289 214.725 65.4647 215.102 64.2909C215.689 62.111 215.982 60.0569 215.982 58.1285C215.982 55.2359 215.102 52.1337 213.341 48.8219C212.251 46.8935 211.413 45.3634 210.826 44.2315C210.239 43.0996 209.715 41.8001 209.254 40.3328C208.709 38.614 208.436 36.9581 208.436 35.3651C208.436 33.856 208.814 32.0743 209.568 30.0201C209.946 29.0559 210.47 28.2804 211.14 27.6935C211.853 27.0647 212.608 26.7503 213.404 26.7503C213.949 26.7503 214.473 26.9389 214.976 27.3162C215.521 27.6935 215.794 28.0918 215.794 28.511C215.794 28.8463 215.521 29.014 214.976 29.014C214.809 29.014 214.599 28.9511 214.347 28.8254C214.096 28.6996 213.865 28.6367 213.656 28.6367C213.027 28.6367 212.461 28.8883 211.958 29.3913C211.455 29.8944 211.077 30.5442 210.826 31.3407C210.323 32.8918 210.071 34.3171 210.071 35.6167C210.071 36.4132 210.176 37.2306 210.386 38.0691C210.428 38.3206 210.47 38.5302 210.512 38.6979C210.553 38.8656 210.574 38.9913 210.574 39.0752L210.952 40.3328L211.266 41.4647L211.769 42.5966C211.895 42.89 212.021 43.1625 212.146 43.414C212.314 43.6237 212.461 43.8333 212.587 44.0429L213.341 45.3634C213.509 45.6149 213.865 46.2228 214.41 47.187C214.955 48.1093 215.458 49.0944 215.919 50.1424C216.339 51.0228 216.653 51.8612 216.863 52.6577C217.072 53.4123 217.261 54.3346 217.429 55.4245C217.554 56.4726 217.617 57.6254 217.617 58.8831C217.617 60.8953 217.345 62.7818 216.8 64.5425C216.045 66.6385 214.955 68.1058 213.53 68.9442C212.733 69.4473 211.811 69.6988 210.763 69.6988L210.449 69.8246ZM215.479 28.8254C215.479 28.7835 215.458 28.7625 215.416 28.7625V28.8254H215.479Z"/>
</mask>
<path d="M137.196 69.4473C136.693 69.4473 136.441 68.7137 136.441 67.2464C136.441 65.1503 136.42 63.2848 136.378 61.6499L136.253 55.9905V50.897C136.211 49.3879 136.19 47.69 136.19 45.8036C136.19 40.1861 136.085 34.9878 135.875 30.2088L135.812 27.945C135.687 25.4717 135.624 23.4594 135.624 21.9083L135.812 21.6568C135.854 21.573 135.938 21.4682 136.064 21.3424C136.106 21.2166 136.211 21.1328 136.378 21.0909C136.462 21.0489 136.609 21.028 136.819 21.028C138.286 21.028 139.606 21.3634 140.78 22.0341C141.996 22.7048 142.981 23.6271 143.736 24.8009C145.203 27.1066 145.936 29.7267 145.936 32.6612C145.936 34.5477 145.622 36.476 144.993 38.4464C144.406 40.4167 143.505 42.1983 142.289 43.7913C141.032 45.5101 139.627 46.5162 138.076 46.8097L138.202 53.7896L138.328 57.1852C138.495 61.2097 138.579 64.6473 138.579 67.4979C138.579 68.1687 138.474 68.6717 138.265 69.0071C138.097 69.3006 137.741 69.4473 137.196 69.4473ZM138.076 44.483C138.453 44.4411 138.831 44.2734 139.208 43.98C139.292 43.9381 139.439 43.7704 139.648 43.4769C139.648 43.4769 139.795 43.3302 140.088 43.0368C142.813 40.3119 144.176 36.8953 144.176 32.787C144.176 30.4394 143.715 28.2594 142.792 26.2472C142.289 25.1992 141.556 24.3817 140.591 23.7948C139.627 23.166 138.495 22.8516 137.196 22.8516C137.196 25.2411 137.322 28.8254 137.573 33.6044C137.825 38.3835 137.95 41.9678 137.95 44.3573L138.076 44.483Z" fill="#D9A918"/>
<path d="M164.052 69.6359C163.424 69.6359 163.025 69.5521 162.858 69.3844C162.69 69.2586 162.564 68.8813 162.48 68.2525C162.103 65.1922 161.873 63.2848 161.789 62.5302L161.474 60.0149C160.552 59.8053 159.504 59.7005 158.33 59.7005L156.066 59.5748C155.06 59.449 154.327 59.3861 153.866 59.3861C153.614 59.3861 153.467 59.4909 153.425 59.7005C153.425 59.8263 153.404 59.8892 153.362 59.8892L153.237 61.1468C153.195 61.9014 152.964 63.4106 152.545 65.6743C152.335 66.8062 152.084 67.6866 151.79 68.3154C151.455 69.0281 151.141 69.3844 150.847 69.3844C150.596 69.3844 150.323 69.2796 150.03 69.07C149.736 68.8185 149.59 68.5669 149.59 68.3154L149.715 67.9381C150.47 64.9617 151.099 62.0062 151.602 59.0717L152.356 55.173L153.111 50.394C153.111 50.394 153.341 49.0106 153.803 46.2437C154.012 45.1119 154.39 43.2883 154.935 40.773C155.521 37.9223 155.878 35.973 156.004 34.925C156.045 34.7992 156.129 34.0236 156.255 32.5983C156.423 31.0053 156.569 29.8315 156.695 29.0769C156.821 27.9869 156.947 27.3581 157.073 27.1904H157.513C157.638 27.2324 157.785 27.2533 157.953 27.2533C158.456 27.2533 158.833 27.1276 159.085 26.876C159.378 26.876 159.63 26.9808 159.839 27.1904C160.091 27.3581 160.217 27.5677 160.217 27.8193C160.217 29.8315 160.363 32.1372 160.657 34.7363C160.824 36.0778 160.95 37.1887 161.034 38.0691C161.495 43.4769 162.669 53.6219 164.555 68.504V68.6927C164.555 69.1119 164.388 69.4263 164.052 69.6359ZM161.16 58.3171C160.741 52.2804 159.944 43.3721 158.77 31.5922L155.375 48.3817C154.41 53.2027 153.928 56.242 153.928 57.4997C153.928 57.7093 154.725 57.8979 156.318 58.0656C157.911 58.2333 159.315 58.3171 160.531 58.3171H161.16Z" fill="#D9A918"/>
<path d="M175.527 68.1896L175.464 65.863C175.422 65.1922 175.401 64.4377 175.401 63.5992C175.401 63.18 175.422 62.8237 175.464 62.5302L175.527 61.3984C175.527 60.9791 175.443 60.4761 175.275 59.8892C175.275 57.0804 175.066 51.8612 174.647 44.2315C174.227 36.8533 173.997 31.8437 173.955 29.2027C171.356 29.2027 169.616 29.1398 168.736 29.014C167.897 28.8044 167.478 28.469 167.478 28.0079C167.688 27.5468 168.086 27.3162 168.673 27.3162C169.93 27.3162 171.754 27.4 174.144 27.5677C176.323 27.7773 178.147 27.8821 179.614 27.8821H180.935L182.255 27.8193C183.01 27.8193 183.387 28.0918 183.387 28.6367C183.387 28.8883 183.241 29.0979 182.947 29.2656C182.696 29.3913 182.381 29.4542 182.004 29.4542C181.165 29.4542 180.285 29.4123 179.363 29.3284L176.659 29.2027C176.491 29.2027 176.407 29.2656 176.407 29.3913C176.365 29.5171 176.344 29.9153 176.344 30.5861C176.344 34.6525 176.596 40.8149 177.099 49.0734C177.56 57.6254 177.791 63.7669 177.791 67.4979C177.791 67.7914 177.602 68.0639 177.225 68.3154C176.889 68.5669 176.554 68.6927 176.219 68.6927L175.527 68.1896Z" fill="#D9A918"/>
<path d="M202.433 69.6359C201.804 69.6359 201.406 69.5521 201.238 69.3844C201.07 69.2586 200.944 68.8813 200.861 68.2525C200.483 65.1922 200.253 63.2848 200.169 62.5302L199.854 60.0149C198.932 59.8053 197.884 59.7005 196.71 59.7005L194.447 59.5748C193.441 59.449 192.707 59.3861 192.246 59.3861C191.994 59.3861 191.848 59.4909 191.806 59.7005C191.806 59.8263 191.785 59.8892 191.743 59.8892L191.617 61.1468C191.575 61.9014 191.344 63.4106 190.925 65.6743C190.716 66.8062 190.464 67.6866 190.171 68.3154C189.835 69.0281 189.521 69.3844 189.227 69.3844C188.976 69.3844 188.703 69.2796 188.41 69.07C188.116 68.8185 187.97 68.5669 187.97 68.3154L188.096 67.9381C188.85 64.9617 189.479 62.0062 189.982 59.0717L190.737 55.173L191.491 50.394C191.491 50.394 191.722 49.0106 192.183 46.2437C192.392 45.1119 192.77 43.2883 193.315 40.773C193.902 37.9223 194.258 35.973 194.384 34.925C194.426 34.7992 194.51 34.0236 194.635 32.5983C194.803 31.0053 194.95 29.8315 195.075 29.0769C195.201 27.9869 195.327 27.3581 195.453 27.1904H195.893C196.019 27.2324 196.165 27.2533 196.333 27.2533C196.836 27.2533 197.213 27.1276 197.465 26.876C197.758 26.876 198.01 26.9808 198.22 27.1904C198.471 27.3581 198.597 27.5677 198.597 27.8193C198.597 29.8315 198.744 32.1372 199.037 34.7363C199.205 36.0778 199.33 37.1887 199.414 38.0691C199.875 43.4769 201.049 53.6219 202.936 68.504V68.6927C202.936 69.1119 202.768 69.4263 202.433 69.6359ZM199.54 58.3171C199.121 52.2804 198.324 43.3721 197.151 31.5922L193.755 48.3817C192.791 53.2027 192.309 56.242 192.309 57.4997C192.309 57.7093 193.105 57.8979 194.698 58.0656C196.291 58.2333 197.696 58.3171 198.911 58.3171H199.54Z" fill="#D9A918"/>
<path d="M210.449 69.8246C209.988 69.7407 209.547 69.5521 209.128 69.2586C208.709 69.0071 208.478 68.6927 208.436 68.3154L208.751 67.8123C208.919 67.8123 209.296 67.8752 209.883 68.001C210.344 68.1687 210.721 68.2525 211.015 68.2525C211.937 68.2525 212.754 67.8962 213.467 67.1835C214.18 66.4289 214.725 65.4647 215.102 64.2909C215.689 62.111 215.982 60.0569 215.982 58.1285C215.982 55.2359 215.102 52.1337 213.341 48.8219C212.251 46.8935 211.413 45.3634 210.826 44.2315C210.239 43.0996 209.715 41.8001 209.254 40.3328C208.709 38.614 208.436 36.9581 208.436 35.3651C208.436 33.856 208.814 32.0743 209.568 30.0201C209.946 29.0559 210.47 28.2804 211.14 27.6935C211.853 27.0647 212.608 26.7503 213.404 26.7503C213.949 26.7503 214.473 26.9389 214.976 27.3162C215.521 27.6935 215.794 28.0918 215.794 28.511C215.794 28.8463 215.521 29.014 214.976 29.014C214.809 29.014 214.599 28.9511 214.347 28.8254C214.096 28.6996 213.865 28.6367 213.656 28.6367C213.027 28.6367 212.461 28.8883 211.958 29.3913C211.455 29.8944 211.077 30.5442 210.826 31.3407C210.323 32.8918 210.071 34.3171 210.071 35.6167C210.071 36.4132 210.176 37.2306 210.386 38.0691C210.428 38.3206 210.47 38.5302 210.512 38.6979C210.553 38.8656 210.574 38.9913 210.574 39.0752L210.952 40.3328L211.266 41.4647L211.769 42.5966C211.895 42.89 212.021 43.1625 212.146 43.414C212.314 43.6237 212.461 43.8333 212.587 44.0429L213.341 45.3634C213.509 45.6149 213.865 46.2228 214.41 47.187C214.955 48.1093 215.458 49.0944 215.919 50.1424C216.339 51.0228 216.653 51.8612 216.863 52.6577C217.072 53.4123 217.261 54.3346 217.429 55.4245C217.554 56.4726 217.617 57.6254 217.617 58.8831C217.617 60.8953 217.345 62.7818 216.8 64.5425C216.045 66.6385 214.955 68.1058 213.53 68.9442C212.733 69.4473 211.811 69.6988 210.763 69.6988L210.449 69.8246ZM215.479 28.8254C215.479 28.7835 215.458 28.7625 215.416 28.7625V28.8254H215.479Z" fill="#D9A918"/>
<path d="M137.196 69.4473C136.693 69.4473 136.441 68.7137 136.441 67.2464C136.441 65.1503 136.42 63.2848 136.378 61.6499L136.253 55.9905V50.897C136.211 49.3879 136.19 47.69 136.19 45.8036C136.19 40.1861 136.085 34.9878 135.875 30.2088L135.812 27.945C135.687 25.4717 135.624 23.4594 135.624 21.9083L135.812 21.6568C135.854 21.573 135.938 21.4682 136.064 21.3424C136.106 21.2166 136.211 21.1328 136.378 21.0909C136.462 21.0489 136.609 21.028 136.819 21.028C138.286 21.028 139.606 21.3634 140.78 22.0341C141.996 22.7048 142.981 23.6271 143.736 24.8009C145.203 27.1066 145.936 29.7267 145.936 32.6612C145.936 34.5477 145.622 36.476 144.993 38.4464C144.406 40.4167 143.505 42.1983 142.289 43.7913C141.032 45.5101 139.627 46.5162 138.076 46.8097L138.202 53.7896L138.328 57.1852C138.495 61.2097 138.579 64.6473 138.579 67.4979C138.579 68.1687 138.474 68.6717 138.265 69.0071C138.097 69.3006 137.741 69.4473 137.196 69.4473ZM138.076 44.483C138.453 44.4411 138.831 44.2734 139.208 43.98C139.292 43.9381 139.439 43.7704 139.648 43.4769C139.648 43.4769 139.795 43.3302 140.088 43.0368C142.813 40.3119 144.176 36.8953 144.176 32.787C144.176 30.4394 143.715 28.2594 142.792 26.2472C142.289 25.1992 141.556 24.3817 140.591 23.7948C139.627 23.166 138.495 22.8516 137.196 22.8516C137.196 25.2411 137.322 28.8254 137.573 33.6044C137.825 38.3835 137.95 41.9678 137.95 44.3573L138.076 44.483Z" stroke="#D9A918" stroke-width="2" mask="url(#path-3-outside-2_9_425)"/>
<path d="M164.052 69.6359C163.424 69.6359 163.025 69.5521 162.858 69.3844C162.69 69.2586 162.564 68.8813 162.48 68.2525C162.103 65.1922 161.873 63.2848 161.789 62.5302L161.474 60.0149C160.552 59.8053 159.504 59.7005 158.33 59.7005L156.066 59.5748C155.06 59.449 154.327 59.3861 153.866 59.3861C153.614 59.3861 153.467 59.4909 153.425 59.7005C153.425 59.8263 153.404 59.8892 153.362 59.8892L153.237 61.1468C153.195 61.9014 152.964 63.4106 152.545 65.6743C152.335 66.8062 152.084 67.6866 151.79 68.3154C151.455 69.0281 151.141 69.3844 150.847 69.3844C150.596 69.3844 150.323 69.2796 150.03 69.07C149.736 68.8185 149.59 68.5669 149.59 68.3154L149.715 67.9381C150.47 64.9617 151.099 62.0062 151.602 59.0717L152.356 55.173L153.111 50.394C153.111 50.394 153.341 49.0106 153.803 46.2437C154.012 45.1119 154.39 43.2883 154.935 40.773C155.521 37.9223 155.878 35.973 156.004 34.925C156.045 34.7992 156.129 34.0236 156.255 32.5983C156.423 31.0053 156.569 29.8315 156.695 29.0769C156.821 27.9869 156.947 27.3581 157.073 27.1904H157.513C157.638 27.2324 157.785 27.2533 157.953 27.2533C158.456 27.2533 158.833 27.1276 159.085 26.876C159.378 26.876 159.63 26.9808 159.839 27.1904C160.091 27.3581 160.217 27.5677 160.217 27.8193C160.217 29.8315 160.363 32.1372 160.657 34.7363C160.824 36.0778 160.95 37.1887 161.034 38.0691C161.495 43.4769 162.669 53.6219 164.555 68.504V68.6927C164.555 69.1119 164.388 69.4263 164.052 69.6359ZM161.16 58.3171C160.741 52.2804 159.944 43.3721 158.77 31.5922L155.375 48.3817C154.41 53.2027 153.928 56.242 153.928 57.4997C153.928 57.7093 154.725 57.8979 156.318 58.0656C157.911 58.2333 159.315 58.3171 160.531 58.3171H161.16Z" stroke="#D9A918" stroke-width="2" mask="url(#path-3-outside-2_9_425)"/>
<path d="M175.527 68.1896L175.464 65.863C175.422 65.1922 175.401 64.4377 175.401 63.5992C175.401 63.18 175.422 62.8237 175.464 62.5302L175.527 61.3984C175.527 60.9791 175.443 60.4761 175.275 59.8892C175.275 57.0804 175.066 51.8612 174.647 44.2315C174.227 36.8533 173.997 31.8437 173.955 29.2027C171.356 29.2027 169.616 29.1398 168.736 29.014C167.897 28.8044 167.478 28.469 167.478 28.0079C167.688 27.5468 168.086 27.3162 168.673 27.3162C169.93 27.3162 171.754 27.4 174.144 27.5677C176.323 27.7773 178.147 27.8821 179.614 27.8821H180.935L182.255 27.8193C183.01 27.8193 183.387 28.0918 183.387 28.6367C183.387 28.8883 183.241 29.0979 182.947 29.2656C182.696 29.3913 182.381 29.4542 182.004 29.4542C181.165 29.4542 180.285 29.4123 179.363 29.3284L176.659 29.2027C176.491 29.2027 176.407 29.2656 176.407 29.3913C176.365 29.5171 176.344 29.9153 176.344 30.5861C176.344 34.6525 176.596 40.8149 177.099 49.0734C177.56 57.6254 177.791 63.7669 177.791 67.4979C177.791 67.7914 177.602 68.0639 177.225 68.3154C176.889 68.5669 176.554 68.6927 176.219 68.6927L175.527 68.1896Z" stroke="#D9A918" stroke-width="2" mask="url(#path-3-outside-2_9_425)"/>
<path d="M202.433 69.6359C201.804 69.6359 201.406 69.5521 201.238 69.3844C201.07 69.2586 200.944 68.8813 200.861 68.2525C200.483 65.1922 200.253 63.2848 200.169 62.5302L199.854 60.0149C198.932 59.8053 197.884 59.7005 196.71 59.7005L194.447 59.5748C193.441 59.449 192.707 59.3861 192.246 59.3861C191.994 59.3861 191.848 59.4909 191.806 59.7005C191.806 59.8263 191.785 59.8892 191.743 59.8892L191.617 61.1468C191.575 61.9014 191.344 63.4106 190.925 65.6743C190.716 66.8062 190.464 67.6866 190.171 68.3154C189.835 69.0281 189.521 69.3844 189.227 69.3844C188.976 69.3844 188.703 69.2796 188.41 69.07C188.116 68.8185 187.97 68.5669 187.97 68.3154L188.096 67.9381C188.85 64.9617 189.479 62.0062 189.982 59.0717L190.737 55.173L191.491 50.394C191.491 50.394 191.722 49.0106 192.183 46.2437C192.392 45.1119 192.77 43.2883 193.315 40.773C193.902 37.9223 194.258 35.973 194.384 34.925C194.426 34.7992 194.51 34.0236 194.635 32.5983C194.803 31.0053 194.95 29.8315 195.075 29.0769C195.201 27.9869 195.327 27.3581 195.453 27.1904H195.893C196.019 27.2324 196.165 27.2533 196.333 27.2533C196.836 27.2533 197.213 27.1276 197.465 26.876C197.758 26.876 198.01 26.9808 198.22 27.1904C198.471 27.3581 198.597 27.5677 198.597 27.8193C198.597 29.8315 198.744 32.1372 199.037 34.7363C199.205 36.0778 199.33 37.1887 199.414 38.0691C199.875 43.4769 201.049 53.6219 202.936 68.504V68.6927C202.936 69.1119 202.768 69.4263 202.433 69.6359ZM199.54 58.3171C199.121 52.2804 198.324 43.3721 197.151 31.5922L193.755 48.3817C192.791 53.2027 192.309 56.242 192.309 57.4997C192.309 57.7093 193.105 57.8979 194.698 58.0656C196.291 58.2333 197.696 58.3171 198.911 58.3171H199.54Z" stroke="#D9A918" stroke-width="2" mask="url(#path-3-outside-2_9_425)"/>
<path d="M210.449 69.8246C209.988 69.7407 209.547 69.5521 209.128 69.2586C208.709 69.0071 208.478 68.6927 208.436 68.3154L208.751 67.8123C208.919 67.8123 209.296 67.8752 209.883 68.001C210.344 68.1687 210.721 68.2525 211.015 68.2525C211.937 68.2525 212.754 67.8962 213.467 67.1835C214.18 66.4289 214.725 65.4647 215.102 64.2909C215.689 62.111 215.982 60.0569 215.982 58.1285C215.982 55.2359 215.102 52.1337 213.341 48.8219C212.251 46.8935 211.413 45.3634 210.826 44.2315C210.239 43.0996 209.715 41.8001 209.254 40.3328C208.709 38.614 208.436 36.9581 208.436 35.3651C208.436 33.856 208.814 32.0743 209.568 30.0201C209.946 29.0559 210.47 28.2804 211.14 27.6935C211.853 27.0647 212.608 26.7503 213.404 26.7503C213.949 26.7503 214.473 26.9389 214.976 27.3162C215.521 27.6935 215.794 28.0918 215.794 28.511C215.794 28.8463 215.521 29.014 214.976 29.014C214.809 29.014 214.599 28.9511 214.347 28.8254C214.096 28.6996 213.865 28.6367 213.656 28.6367C213.027 28.6367 212.461 28.8883 211.958 29.3913C211.455 29.8944 211.077 30.5442 210.826 31.3407C210.323 32.8918 210.071 34.3171 210.071 35.6167C210.071 36.4132 210.176 37.2306 210.386 38.0691C210.428 38.3206 210.47 38.5302 210.512 38.6979C210.553 38.8656 210.574 38.9913 210.574 39.0752L210.952 40.3328L211.266 41.4647L211.769 42.5966C211.895 42.89 212.021 43.1625 212.146 43.414C212.314 43.6237 212.461 43.8333 212.587 44.0429L213.341 45.3634C213.509 45.6149 213.865 46.2228 214.41 47.187C214.955 48.1093 215.458 49.0944 215.919 50.1424C216.339 51.0228 216.653 51.8612 216.863 52.6577C217.072 53.4123 217.261 54.3346 217.429 55.4245C217.554 56.4726 217.617 57.6254 217.617 58.8831C217.617 60.8953 217.345 62.7818 216.8 64.5425C216.045 66.6385 214.955 68.1058 213.53 68.9442C212.733 69.4473 211.811 69.6988 210.763 69.6988L210.449 69.8246ZM215.479 28.8254C215.479 28.7835 215.458 28.7625 215.416 28.7625V28.8254H215.479Z" stroke="#D9A918" stroke-width="2" mask="url(#path-3-outside-2_9_425)"/>
<path d="M147.475 12.7168C147.508 12.5784 147.526 12.4339 147.526 12.2855C147.526 11.2536 146.671 10.4171 145.617 10.4171C144.563 10.4171 143.708 11.2536 143.708 12.2855C143.708 12.4363 143.727 12.583 143.761 12.7236C142.876 12.8858 142.205 13.6463 142.205 14.5599C142.205 15.5918 143.06 16.4283 144.114 16.4283C144.736 16.4283 145.289 16.1371 145.637 15.6864C145.986 16.1371 146.539 16.4283 147.161 16.4283C148.215 16.4283 149.069 15.5918 149.069 14.5599C149.069 13.6329 148.38 12.8636 147.475 12.7168Z" fill="#BF80FF"/>
<path d="M142.348 10.2019C142.884 11.0124 142.804 12.0085 142.171 12.4267C141.538 12.8448 140.59 12.5267 140.055 11.7162C139.52 10.9056 139.599 9.90953 140.233 9.49138C140.866 9.07322 141.813 9.39132 142.348 10.2019Z" fill="#BF80FF"/>
<path d="M148.942 10.2195C148.407 11.0301 148.486 12.0261 149.119 12.4443C149.753 12.8625 150.7 12.5444 151.235 11.7338C151.77 10.9232 151.691 9.92718 151.058 9.50902C150.424 9.09087 149.477 9.40897 148.942 10.2195Z" fill="#BF80FF"/>
<path d="M145.202 7.27949C145.602 8.36994 145.235 9.50709 144.383 9.81939C143.531 10.1317 142.517 9.50086 142.117 8.41041C141.717 7.31996 142.084 6.18281 142.936 5.87051C143.788 5.55821 144.802 6.18903 145.202 7.27949Z" fill="#BF80FF"/>
<path d="M146.097 7.15215C145.698 8.2426 146.064 9.37976 146.916 9.69205C147.768 10.0044 148.783 9.37353 149.182 8.28308C149.582 7.19262 149.216 6.05547 148.364 5.74317C147.512 5.43088 146.497 6.0617 146.097 7.15215Z" fill="#BF80FF"/>
<path d="M171.074 12.7168C171.107 12.5784 171.125 12.4339 171.125 12.2855C171.125 11.2536 170.27 10.4171 169.216 10.4171C168.162 10.4171 167.307 11.2536 167.307 12.2855C167.307 12.4363 167.325 12.583 167.36 12.7236C166.474 12.8858 165.804 13.6463 165.804 14.5599C165.804 15.5918 166.659 16.4283 167.713 16.4283C168.335 16.4283 168.888 16.1371 169.236 15.6864C169.585 16.1371 170.137 16.4283 170.759 16.4283C171.813 16.4283 172.668 15.5918 172.668 14.5599C172.668 13.6329 171.978 12.8636 171.074 12.7168Z" fill="#715E26"/>
<path d="M165.947 10.2019C166.482 11.0124 166.403 12.0085 165.77 12.4267C165.136 12.8448 164.189 12.5267 163.654 11.7162C163.119 10.9056 163.198 9.90953 163.831 9.49138C164.465 9.07322 165.412 9.39132 165.947 10.2019Z" fill="#715E26"/>
<path d="M172.541 10.2195C172.005 11.0301 172.085 12.0261 172.718 12.4443C173.351 12.8625 174.299 12.5444 174.834 11.7338C175.369 10.9232 175.29 9.92718 174.656 9.50902C174.023 9.09087 173.076 9.40897 172.541 10.2195Z" fill="#715E26"/>
<path d="M168.801 7.27949C169.2 8.36994 168.834 9.50709 167.982 9.81939C167.13 10.1317 166.115 9.50086 165.716 8.41041C165.316 7.31996 165.682 6.18281 166.534 5.87051C167.386 5.55821 168.401 6.18903 168.801 7.27949Z" fill="#715E26"/>
<path d="M169.696 7.15215C169.296 8.2426 169.663 9.37976 170.515 9.69205C171.367 10.0044 172.381 9.37353 172.781 8.28308C173.181 7.19262 172.814 6.05547 171.962 5.74317C171.11 5.43088 170.096 6.0617 169.696 7.15215Z" fill="#715E26"/>
<path d="M194.672 12.7168C194.706 12.5784 194.723 12.4339 194.723 12.2855C194.723 11.2536 193.869 10.4171 192.814 10.4171C191.76 10.4171 190.905 11.2536 190.905 12.2855C190.905 12.4363 190.924 12.583 190.958 12.7236C190.073 12.8858 189.403 13.6463 189.403 14.5599C189.403 15.5918 190.257 16.4283 191.312 16.4283C191.934 16.4283 192.486 16.1371 192.835 15.6864C193.183 16.1371 193.736 16.4283 194.358 16.4283C195.412 16.4283 196.267 15.5918 196.267 14.5599C196.267 13.6329 195.577 12.8636 194.672 12.7168Z" fill="#BF80FF"/>
<path d="M189.546 10.2019C190.081 11.0124 190.001 12.0085 189.368 12.4267C188.735 12.8448 187.788 12.5267 187.252 11.7162C186.717 10.9056 186.797 9.90953 187.43 9.49138C188.063 9.07322 189.01 9.39132 189.546 10.2019Z" fill="#BF80FF"/>
<path d="M196.139 10.2195C195.604 11.0301 195.683 12.0261 196.317 12.4443C196.95 12.8625 197.897 12.5444 198.432 11.7338C198.968 10.9232 198.888 9.92718 198.255 9.50902C197.622 9.09087 196.674 9.40897 196.139 10.2195Z" fill="#BF80FF"/>
<path d="M192.399 7.27949C192.799 8.36994 192.432 9.50709 191.581 9.81939C190.729 10.1317 189.714 9.50086 189.314 8.41041C188.914 7.31996 189.281 6.18281 190.133 5.87051C190.985 5.55821 192 6.18903 192.399 7.27949Z" fill="#BF80FF"/>
<path d="M193.295 7.15215C192.895 8.2426 193.261 9.37976 194.113 9.69205C194.965 10.0044 195.98 9.37353 196.38 8.28308C196.779 7.19262 196.413 6.05547 195.561 5.74317C194.709 5.43088 193.694 6.0617 193.295 7.15215Z" fill="#BF80FF"/>
<path d="M218.271 12.7168C218.304 12.5783 218.322 12.4339 218.322 12.2854C218.322 11.2536 217.467 10.4171 216.413 10.4171C215.359 10.4171 214.504 11.2536 214.504 12.2854C214.504 12.4363 214.522 12.583 214.557 12.7235C213.671 12.8858 213.001 13.6462 213.001 14.5599C213.001 15.5918 213.856 16.4282 214.91 16.4282C215.532 16.4282 216.085 16.1371 216.433 15.6864C216.782 16.1371 217.334 16.4282 217.956 16.4282C219.011 16.4282 219.865 15.5918 219.865 14.5599C219.865 13.6329 219.176 12.8635 218.271 12.7168Z" fill="#715E26"/>
<path d="M213.144 10.2019C213.68 11.0124 213.6 12.0085 212.967 12.4267C212.334 12.8448 211.386 12.5267 210.851 11.7162C210.316 10.9056 210.395 9.90953 211.029 9.49138C211.662 9.07322 212.609 9.39132 213.144 10.2019Z" fill="#715E26"/>
<path d="M219.738 10.2195C219.203 11.0301 219.282 12.0261 219.915 12.4443C220.549 12.8625 221.496 12.5444 222.031 11.7338C222.566 10.9232 222.487 9.92718 221.854 9.50902C221.22 9.09087 220.273 9.40897 219.738 10.2195Z" fill="#715E26"/>
<path d="M215.998 7.27949C216.398 8.36994 216.031 9.50709 215.179 9.81939C214.327 10.1317 213.313 9.50086 212.913 8.41041C212.513 7.31996 212.88 6.18281 213.732 5.87051C214.583 5.55821 215.598 6.18903 215.998 7.27949Z" fill="#715E26"/>
<path d="M216.893 7.15215C216.493 8.2426 216.86 9.37976 217.712 9.69205C218.564 10.0044 219.578 9.37353 219.978 8.28308C220.378 7.19262 220.011 6.05547 219.159 5.74317C218.308 5.43088 217.293 6.0617 216.893 7.15215Z" fill="#715E26"/>
</svg>
